<svg width="145" height="124" viewBox="0 0 145 124" fill="none" xmlns="http://www.w3.org/2000/svg">
<rect width="145" height="124" fill="#1D1E1E"/>
<path d="M63.2262 68.7513C53.0758 68.7513 44.7297 77.0783 44.7297 87.2054C44.7297 97.3325 53.0758 105.659 63.2262 105.659C73.3765 105.659 81.7225 97.3325 81.7225 87.2054C81.7225 77.0783 73.3765 68.7513 63.2262 68.7513ZM81.1181 0.00116013C54.121 0.00116013 41.3391 20.8974 38.3225 26.5363H29.2556H29.0138L28.6514 26.6568C28.6514 26.6568 21.6048 27.6934 14.5071 32.205C7.40935 36.7166 0 45.242 0 58.8608C0 74.01 8.37949 82.9254 16.4413 87.2052C24.5031 91.485 32.5199 91.7885 32.5199 91.7885L32.6405 91.9089H32.7612L64.6767 91.5474V83.828L32.8821 84.1896C32.8821 84.1896 32.6517 84.1904 32.6404 84.1896C32.2752 84.1665 26.2381 83.6057 20.0676 80.33C13.7088 76.9543 7.73677 71.3289 7.73677 58.8606C7.73677 47.8927 13.021 42.275 18.6169 38.718C24.2128 35.161 29.8599 34.2553 29.8599 34.2553H40.4983H43.037L44.0042 32.0842C44.0042 32.0842 54.9193 7.72008 81.1178 7.72008C94.2809 7.72008 102.192 12.4803 107.593 17.8517C112.994 23.2231 115.597 29.1984 117.143 32.446C117.993 34.2302 118.721 40.7443 118.715 46.1961C118.708 51.648 118.353 56.3278 118.353 56.3278L117.99 60.6698L122.342 60.4286C122.342 60.4286 125.965 60.385 129.354 61.8759C132.743 63.367 135.751 65.634 135.761 72.8519C135.769 77.7373 133.494 79.9754 130.805 81.6568C128.116 83.3382 125.365 83.8277 125.365 83.8277L93.2075 83.2247L93.0867 90.9441L125.969 91.5471H126.332L126.573 91.4267C126.573 91.4267 130.778 90.7572 134.915 88.1701C139.052 85.5831 143.509 80.5296 143.498 72.852C143.483 63.0123 137.823 57.1028 132.497 54.7598C130.189 53.7446 128.045 53.4503 126.211 53.1919C126.334 51.2713 126.448 49.9843 126.453 46.1962C126.46 40.3837 126.464 34.0398 124.156 29.1897C122.831 26.4074 119.752 18.8647 113.155 12.3036C106.557 5.74265 96.19 0.00116013 81.1181 0.00116013ZM63.2262 51.2622C58.3421 51.2622 53.6884 52.3792 49.4445 54.157L53.1922 62.3588C56.2916 61.1116 59.6582 60.3084 63.2262 60.3084C78.0408 60.3084 89.8223 72.1834 89.8223 86.9641C89.8223 101.745 78.0408 113.499 63.2262 113.499C59.484 113.499 55.9286 112.814 52.7085 111.449L48.9609 119.651C53.326 121.551 58.1669 122.545 63.2262 122.545C82.9227 122.545 98.8891 106.616 98.8891 86.9641C98.8891 67.3127 82.9227 51.2622 63.2262 51.2622Z" fill="#00BCF2"/>
</svg>
