<svg width="162" height="97" viewBox="0 0 162 97" fill="none" xmlns="http://www.w3.org/2000/svg">
<rect width="162" height="97" fill="#1D1E1E"/>
<g clip-path="url(#clip0_24_98)">
<path d="M45.8106 35.147C45.8106 37.1358 46.0257 38.748 46.401 39.9304C46.8774 41.2606 47.451 42.5539 48.1172 43.7996C48.3855 44.2295 48.4924 44.6593 48.4924 45.0359C48.4924 45.5729 48.171 46.1105 47.4736 46.6481L44.0944 48.9051C43.6115 49.2278 43.1287 49.3889 42.699 49.3889C42.163 49.3889 41.6264 49.12 41.0898 48.6363C40.3671 47.8581 39.7206 47.0123 39.1591 46.1105C38.6224 45.1976 38.0858 44.1756 37.496 42.9399C33.3119 47.8838 28.0545 50.3563 21.7251 50.3563C17.2195 50.3563 13.6251 49.0662 10.9964 46.4871C8.36831 43.9068 7.02738 40.4674 7.02738 36.1683C7.02738 31.6004 8.63663 27.8923 11.9089 25.0976C15.1805 22.303 19.5261 20.9057 25.0511 20.9057C26.8749 20.9057 28.7525 21.0668 30.737 21.3356C32.7221 21.6044 34.7604 22.0342 36.9063 22.5179V18.5948C36.9063 14.5101 36.0475 11.6622 34.3845 9.99607C32.6683 8.32995 29.7713 7.52352 25.6409 7.52352C23.7634 7.52352 21.8327 7.73908 19.8475 8.22281C17.863 8.70591 15.9317 9.29742 14.0541 10.05C13.196 10.4259 12.5525 10.6408 12.1766 10.7486C11.8013 10.8564 11.533 10.9096 11.3185 10.9096C10.5673 10.9096 10.1921 10.372 10.1921 9.24353V6.60995C10.1921 5.75026 10.2997 5.1055 10.5673 4.72954C10.8356 4.35295 11.3185 3.977 12.0696 3.60105C13.9472 2.63358 16.2 1.82715 18.8281 1.18239C21.4574 0.483732 24.2468 0.161667 27.197 0.161667C33.5808 0.161667 38.2478 1.61223 41.2518 4.51462C44.202 7.41638 45.7042 11.8232 45.7042 17.7352V35.147H45.8118H45.8106ZM24.0317 43.3159C25.8023 43.3159 27.6261 42.9938 29.5568 42.3484C31.4881 41.7037 33.2049 40.5213 34.6528 38.909C35.5115 37.8883 36.1551 36.7598 36.4766 35.4697C36.7987 34.1801 37.0132 32.6212 37.0132 30.794V28.537C35.3864 28.1403 33.7387 27.8353 32.0779 27.6234C30.4055 27.4106 28.7215 27.3029 27.0356 27.3007C23.4413 27.3007 20.8132 27.9994 19.0432 29.4506C17.2726 30.9018 16.4145 32.9439 16.4145 35.6307C16.4145 38.1565 17.0581 40.0375 18.399 41.3277C19.6868 42.6711 21.5644 43.3159 24.0317 43.3159ZM67.1066 49.12C66.1409 49.12 65.4974 48.959 65.0683 48.5824C64.6393 48.2604 64.2634 47.5078 63.9419 46.4871L51.3363 4.94446C51.0135 3.86922 50.8528 3.17057 50.8528 2.79461C50.8528 1.93493 51.2819 1.45056 52.1406 1.45056H57.3974C58.4162 1.45056 59.1142 1.61223 59.4894 1.98818C59.9185 2.31088 60.2406 3.06342 60.5621 4.08414L69.5739 39.6616L77.9423 4.08414C78.2106 3.00954 78.5327 2.31088 78.9611 1.98818C79.3908 1.66612 80.1419 1.4512 81.1076 1.4512H85.3987C86.4175 1.4512 87.1155 1.61223 87.5439 1.98818C87.9736 2.31088 88.3489 3.06342 88.5634 4.08414L97.0393 40.0914L106.319 4.08414C106.64 3.00954 107.016 2.31088 107.391 1.98818C107.82 1.66612 108.518 1.4512 109.484 1.4512H114.472C115.331 1.4512 115.814 1.88104 115.814 2.79461C115.814 3.06342 115.76 3.33224 115.706 3.6543C115.652 3.977 115.545 4.40684 115.331 4.99835L102.402 46.5403C102.081 47.6156 101.706 48.3142 101.276 48.6363C100.847 48.959 100.15 49.1739 99.2383 49.1739H94.6251C93.6056 49.1739 92.9083 49.0129 92.4786 48.6363C92.0495 48.2604 91.6743 47.5617 91.4598 46.4871L83.1446 11.8232L74.8839 46.4326C74.6162 47.5078 74.2941 48.2065 73.865 48.5824C73.436 48.959 72.6848 49.12 71.7198 49.12H67.106H67.1066ZM136.037 50.5712C133.248 50.5712 130.458 50.2485 127.776 49.6038C125.094 48.959 123.002 48.2597 121.608 47.4546C120.749 46.9702 120.158 46.4332 119.945 45.9495C119.736 45.4751 119.626 44.9629 119.622 44.4444V41.7037C119.622 40.5752 120.051 40.0375 120.856 40.0375C121.185 40.0388 121.511 40.0934 121.822 40.1992C122.144 40.307 122.626 40.5213 123.163 40.7362C125.058 41.5711 127.036 42.2017 129.063 42.6172C131.165 43.0445 133.303 43.2604 135.447 43.262C138.826 43.262 141.455 42.6711 143.279 41.4887C145.103 40.3064 146.068 38.587 146.068 36.3832C146.068 34.8788 145.585 33.6425 144.62 32.6212C143.654 31.6004 141.83 30.6869 139.202 29.8266L131.424 27.4085C127.508 26.1722 124.612 24.3451 122.841 21.9264C121.071 19.5617 120.159 16.9287 120.159 14.1341C120.159 11.8771 120.642 9.88829 121.608 8.16829C122.573 6.44892 123.86 4.94446 125.47 3.76208C127.079 2.5258 128.903 1.61223 131.049 0.967464C133.194 0.322699 135.447 0.0538888 137.807 0.0538888C138.987 0.0538888 140.221 0.107778 141.401 0.26881C142.635 0.429843 143.762 0.644765 144.888 0.859686C145.961 1.1285 146.98 1.39731 147.946 1.72001C148.912 2.04207 149.662 2.36477 150.199 2.68684C150.95 3.11731 151.486 3.54716 151.808 4.03089C152.13 4.46073 152.291 5.05161 152.291 5.80415V8.32995C152.291 9.45845 151.862 10.05 151.057 10.05C150.628 10.05 149.93 9.83441 149.019 9.40456C145.961 8.00725 142.528 7.3086 138.719 7.3086C135.662 7.3086 133.248 7.79233 131.585 8.81369C129.922 9.83441 129.063 11.3934 129.063 13.5965C129.063 15.1016 129.6 16.3911 130.673 17.4125C131.746 18.4332 133.73 19.4545 136.574 20.3681L144.191 22.7868C148.053 24.023 150.842 25.7424 152.505 27.9455C154.168 30.1492 154.973 32.6751 154.973 35.4697C154.973 37.7805 154.49 39.8765 153.578 41.7037C152.613 43.5308 151.325 45.143 149.662 46.4332C147.999 47.7766 146.015 48.7441 143.708 49.4427C141.294 50.1953 138.773 50.5712 136.037 50.5712Z" fill="#7F868F"/>
<path d="M146.175 76.6896C128.527 89.7491 102.886 96.6817 80.8393 96.6817C49.9409 96.6817 22.101 85.2345 1.07325 66.2098C-0.589781 64.7053 0.911883 62.6633 2.89638 63.845C25.6409 77.0662 53.696 85.0734 82.7168 85.0734C102.296 85.0734 123.807 80.9893 143.601 72.6055C146.551 71.2614 149.072 74.5404 146.175 76.6896ZM153.525 68.3057C151.272 65.404 138.612 66.9084 132.872 67.6071C131.155 67.8227 130.887 66.3176 132.443 65.1891C142.528 58.0948 159.104 60.1375 161.034 62.5016C162.966 64.9203 160.498 81.5263 151.057 89.4803C149.609 90.7166 148.214 90.0718 148.858 88.4596C151.003 83.1385 155.778 71.1543 153.525 68.3057Z" fill="#FF9900"/>
</g>
<defs>
<clipPath id="clip0_24_98">
<rect width="162" height="97" fill="white"/>
</clipPath>
</defs>
</svg>
