<svg width="125" height="188" viewBox="0 0 125 188" fill="none" xmlns="http://www.w3.org/2000/svg">
<rect width="125" height="188" fill="#1D1E1E"/>
<g clip-path="url(#clip0_24_98)">
<path d="M31.25 188C48.5 188 62.5 173.963 62.5 156.667V125.333H31.25C14 125.333 0 139.371 0 156.667C0 173.963 14 188 31.25 188Z" fill="#0ACF83"/>
<path d="M0 94C0 76.704 14 62.6667 31.25 62.6667H62.5V125.333H31.25C14 125.333 0 111.296 0 94Z" fill="#A259FF"/>
<path d="M0 31.3333C0 14.0373 14 0 31.25 0H62.5V62.6667H31.25C14 62.6667 0 48.6293 0 31.3333Z" fill="#F24E1E"/>
<path d="M62.5 0H93.75C111 0 125 14.0373 125 31.3333C125 48.6293 111 62.6667 93.75 62.6667H62.5V0Z" fill="#FF7262"/>
<path d="M125 94C125 111.296 111 125.333 93.75 125.333C76.5 125.333 62.5 111.296 62.5 94C62.5 76.704 76.5 62.6667 93.75 62.6667C111 62.6667 125 76.704 125 94Z" fill="#1ABCFE"/>
</g>
<defs>
<clipPath id="clip0_24_98">
<rect width="125" height="188" fill="white"/>
</clipPath>
</defs>
</svg>
