<svg width="145" height="145" viewBox="0 0 145 145" fill="none" xmlns="http://www.w3.org/2000/svg">
<rect width="145" height="145" fill="#1D1E1E"/>
<path d="M141.304 66.1313L78.8675 3.6975C75.2743 0.101953 69.4425 0.101953 65.8436 3.6975L52.8797 16.6637L69.3259 33.1098C73.1491 31.8196 77.5308 32.685 80.577 35.7312C83.6389 38.7966 84.4976 43.2157 83.1756 47.0514L99.0259 62.9028C102.861 61.5808 107.286 62.435 110.347 65.5026C114.629 69.7813 114.629 76.7175 110.347 80.9984C109.33 82.0164 108.121 82.8241 106.792 83.3751C105.462 83.9261 104.037 84.2097 102.597 84.2097C101.158 84.2097 99.7324 83.9261 98.4026 83.3751C97.0728 82.8241 95.8646 82.0164 94.847 80.9984C93.3181 79.4686 92.276 77.5207 91.8517 75.3999C91.4274 73.2792 91.6399 71.0803 92.4624 69.08L77.6815 54.2991L77.6792 93.201C78.7516 93.7291 79.7308 94.4286 80.5781 95.2718C84.8578 99.5504 84.8578 106.484 80.5781 110.772C76.2972 115.051 69.3587 115.051 65.0823 110.772C60.8026 106.486 60.8026 99.5516 65.0823 95.2718C66.1077 94.2448 67.3273 93.4323 68.67 92.8816V53.6194C67.3262 53.0702 66.1063 52.2571 65.0823 51.228C61.8402 47.9882 61.0597 43.2304 62.7227 39.2474L46.5088 23.0335L3.6975 65.8425C1.97032 67.5702 1.00005 69.9132 1.00005 72.3561C1.00005 74.7991 1.97032 77.1421 3.6975 78.8698L66.1347 141.304C69.7303 144.899 75.5597 144.899 79.1609 141.304L141.305 79.1598C143.032 77.4316 144.001 75.0884 144.001 72.6453C144.001 70.2023 143.031 67.8592 141.304 66.1313Z" fill="#F34F29"/>
</svg>
