<svg width="167" height="163" viewBox="0 0 167 163" fill="none" xmlns="http://www.w3.org/2000/svg">
<rect width="167" height="163" fill="#1D1E1E"/>
<g clip-path="url(#clip0_24_98)">
<path d="M83.5 0.535278C72.6049 0.535278 61.8165 2.68142 51.7508 6.85115C41.685 11.0209 32.5391 17.1326 24.8351 24.8372C9.27617 40.3975 0.535263 61.5018 0.535263 83.5074C0.535263 120.181 24.3461 151.296 57.2831 162.331C61.4314 162.995 62.7588 160.422 62.7588 158.182V144.16C39.7776 149.138 34.8827 133.042 34.8827 133.042C31.0663 123.417 25.6736 120.845 25.6736 120.845C18.1238 115.701 26.2543 115.866 26.2543 115.866C34.5508 116.447 38.9479 124.413 38.9479 124.413C46.1659 137.024 58.3617 133.291 63.0907 131.299C63.8374 125.906 65.9944 122.255 68.3175 120.181C49.8993 118.107 30.5685 110.971 30.5685 79.3588C30.5685 70.1489 33.7212 62.7643 39.1139 56.8733C38.2842 54.799 35.3805 46.1699 39.9435 34.9687C39.9435 34.9687 46.9126 32.7284 62.7588 43.4318C69.313 41.6065 76.448 40.6938 83.5 40.6938C90.552 40.6938 97.687 41.6065 104.241 43.4318C120.087 32.7284 127.056 34.9687 127.056 34.9687C131.62 46.1699 128.716 54.799 127.886 56.8733C133.279 62.7643 136.432 70.1489 136.432 79.3588C136.432 111.054 117.018 118.024 98.5166 120.098C101.503 122.67 104.241 127.731 104.241 135.448V158.182C104.241 160.422 105.569 163.078 109.8 162.331C142.737 151.213 166.465 120.181 166.465 83.5074C166.465 72.6113 164.319 61.822 160.149 51.7553C155.98 41.6887 149.869 32.5419 142.165 24.8372C134.461 17.1326 125.315 11.0209 115.249 6.85115C105.183 2.68142 94.3951 0.535278 83.5 0.535278Z" fill="#7F868F"/>
</g>
<defs>
<clipPath id="clip0_24_98">
<rect width="167" height="163" fill="white"/>
</clipPath>
</defs>
</svg>
