<svg width="167" height="167" viewBox="0 0 167 167" fill="none" xmlns="http://www.w3.org/2000/svg">
<rect width="167" height="167" fill="#1D1E1E"/>
<g clip-path="url(#clip0_24_98)">
<path d="M145.724 0.535248H21.2764C15.7755 0.535248 10.4999 2.72047 6.61022 6.6102C2.72049 10.4999 0.535263 15.7755 0.535263 21.2764V145.724C0.535263 151.224 2.72049 156.5 6.61022 160.39C10.4999 164.28 15.7755 166.465 21.2764 166.465H145.724C151.224 166.465 156.5 164.28 160.39 160.39C164.28 156.5 166.465 151.224 166.465 145.724V21.2764C166.465 15.7755 164.28 10.4999 160.39 6.6102C156.5 2.72047 151.224 0.535248 145.724 0.535248ZM72.7146 126.642C72.7146 129.282 71.6657 131.814 69.7986 133.681C67.9315 135.549 65.3993 136.597 62.7588 136.597H32.0619C26.5862 136.597 22.1061 132.117 22.1061 126.642V32.0619C22.1061 29.4214 23.155 26.8891 25.0221 25.0221C26.8891 23.155 29.4214 22.1061 32.0619 22.1061H62.7588C68.2345 22.1061 72.7146 26.5862 72.7146 32.0619V126.642ZM144.894 85.1593C144.894 90.635 140.414 95.1151 134.938 95.1151H104.241C98.7655 95.1151 94.2854 90.635 94.2854 85.1593V32.0619C94.2854 26.5862 98.7655 22.1061 104.241 22.1061H134.938C140.414 22.1061 144.894 26.5862 144.894 32.0619V85.1593Z" fill="#0079BF"/>
</g>
<defs>
<clipPath id="clip0_24_98">
<rect width="167" height="167" fill="white"/>
</clipPath>
</defs>
</svg>
