<svg width="167" height="167" viewBox="0 0 167 167" fill="none" xmlns="http://www.w3.org/2000/svg">
<rect width="167" height="167" fill="#1D1E1E"/>
<g clip-path="url(#clip0_24_98)">
<mask id="mask0_24_98" style="mask-type:alpha" maskUnits="userSpaceOnUse" x="-1" y="0" width="168" height="167">
<path fill-rule="evenodd" clip-rule="evenodd" d="M118.423 165.86C119.751 166.378 121.173 166.617 122.598 166.562C124.023 166.507 125.422 166.16 126.707 165.541L161.09 148.997C162.86 148.144 164.354 146.809 165.4 145.145C166.446 143.481 167 141.556 167 139.591V27.4102C167 25.4448 166.446 23.5193 165.4 21.8551C164.355 20.191 162.861 18.8558 161.09 18.0034L126.707 1.46122C124.765 0.526421 122.579 0.218641 120.454 0.580477C118.328 0.942313 116.368 1.95587 114.844 3.48088L49.0223 63.5304L20.3531 41.7669C19.0599 40.785 17.4636 40.2868 15.8414 40.3587C14.2192 40.4307 12.6733 41.0683 11.4721 42.1609L2.27668 50.5253C1.56008 51.1771 0.987405 51.9712 0.595295 52.857C0.203185 53.7427 0.000271529 54.7006 -0.000465287 55.6693C-0.0012021 56.6379 0.200254 57.5961 0.591016 58.4824C0.981778 59.3688 1.55324 60.1638 2.26885 60.8167L27.1323 83.5L2.27016 106.185C1.55494 106.838 0.983815 107.633 0.593296 108.519C0.202776 109.405 0.00145094 110.363 0.00218768 111.331C0.00292441 112.3 0.205707 113.257 0.597574 114.143C0.989442 115.029 1.56177 115.823 2.27798 116.475L11.4734 124.839C12.6744 125.932 14.2202 126.57 15.8425 126.642C17.4647 126.714 19.0611 126.216 20.3544 125.234L49.0236 103.472L114.845 163.52C115.863 164.54 117.08 165.337 118.423 165.86ZM125.275 45.5897L75.3327 83.5L125.276 121.412L125.275 45.5897Z" fill="white"/>
</mask>
<g mask="url(#mask0_24_98)">
<path d="M161.091 18.0307L126.681 1.46112C124.738 0.525704 122.551 0.217589 120.425 0.579429C118.299 0.941268 116.337 1.95517 114.812 3.48078L2.16838 106.184C1.45263 106.837 0.881023 107.632 0.490158 108.518C0.0992928 109.405 -0.102221 110.363 -0.101484 111.331C-0.100747 112.3 0.102224 113.258 0.494437 114.143C0.88665 115.029 1.45946 115.823 2.17621 116.475L11.3769 124.839C12.5789 125.932 14.1255 126.57 15.7486 126.642C17.3716 126.714 18.9688 126.216 20.2631 125.234L155.913 22.327C160.464 18.8748 167 22.1209 167 27.8328V27.4335C167 25.4688 166.445 23.544 165.4 21.8804C164.355 20.2168 162.861 18.8832 161.091 18.0307Z" fill="#0065A9"/>
<g filter="url(#filter0_d_24_98)">
<path d="M161.091 148.971L126.681 165.537C124.738 166.473 122.552 166.782 120.425 166.42C118.299 166.059 116.338 165.046 114.813 163.52L2.16839 60.8154C1.45264 60.1628 0.881031 59.3679 0.490166 58.4816C0.0993004 57.5954 -0.102213 56.6373 -0.101477 55.6686C-0.10074 54.7 0.102232 53.7422 0.494445 52.8565C0.886658 51.9709 1.45947 51.1769 2.17622 50.5253L11.3769 42.161C12.5789 41.068 14.1255 40.4301 15.7486 40.3579C17.3716 40.2857 18.9688 40.7837 20.2631 41.7657L155.913 144.672C160.464 148.125 167 144.879 167 139.167V139.566C167 141.531 166.445 143.456 165.4 145.119C164.355 146.783 162.861 148.118 161.091 148.971Z" fill="#007ACC"/>
</g>
<g filter="url(#filter1_d_24_98)">
<path d="M126.683 165.541C124.739 166.476 122.552 166.784 120.426 166.422C118.299 166.06 116.338 165.046 114.812 163.52C118.664 167.372 125.25 164.644 125.25 159.197V7.80202C125.25 2.35495 118.664 -0.37315 114.812 3.47959C116.338 1.95416 118.299 0.940304 120.426 0.578254C122.552 0.216203 124.739 0.523845 126.683 1.45863L161.086 18.0047C162.857 18.8566 164.352 20.1915 165.399 21.8557C166.445 23.5199 167 25.4457 167 27.4115V139.591C167 141.557 166.445 143.483 165.399 145.147C164.352 146.811 162.857 148.146 161.086 148.998L126.683 165.541Z" fill="#1F9CF0"/>
</g>
<path opacity="0.25" fill-rule="evenodd" clip-rule="evenodd" d="M118.322 165.86C119.651 166.378 121.072 166.617 122.497 166.562C123.922 166.507 125.321 166.16 126.606 165.541L160.988 148.997C162.759 148.144 164.253 146.809 165.299 145.145C166.344 143.481 166.899 141.555 166.898 139.59V27.4101C166.899 25.4447 166.344 23.5192 165.299 21.855C164.253 20.1909 162.759 18.8558 160.988 18.0033L126.606 1.46116C124.663 0.52636 122.477 0.218579 120.352 0.580416C118.227 0.942252 116.266 1.95581 114.742 3.48082L48.9206 63.5304L20.2514 41.7682C18.9581 40.7862 17.3619 40.288 15.7396 40.36C14.1174 40.432 12.5716 41.0696 11.3704 42.1622L2.17491 50.5265C1.45849 51.1784 0.885979 51.9726 0.493984 52.8584C0.101989 53.7441 -0.100862 54.7019 -0.101599 55.6705C-0.102335 56.6391 0.0990581 57.5972 0.489705 58.4835C0.880352 59.3699 1.45166 60.165 2.16709 60.8179L27.0305 83.4999L2.16839 106.183C1.45278 106.836 0.881317 107.631 0.490555 108.517C0.099793 109.404 -0.101663 110.362 -0.100926 111.331C-0.10019 112.299 0.102724 113.257 0.494834 114.143C0.886944 115.029 1.45962 115.823 2.17622 116.475L11.3717 124.839C12.5727 125.932 14.1185 126.57 15.7407 126.642C17.3629 126.714 18.9592 126.216 20.2527 125.234L48.9232 103.471L114.745 163.52C115.762 164.54 116.98 165.336 118.322 165.86ZM125.174 45.5883L75.2309 83.4999L125.174 121.41V45.5883Z" fill="url(#paint0_linear_24_98)"/>
</g>
</g>
<defs>
<filter id="filter0_d_24_98" x="-8.43548" y="32.017" width="183.769" height="142.884" filterUnits="userSpaceOnUse" color-interpolation-filters="sRGB">
<feFlood flood-opacity="0" result="BackgroundImageFix"/>
<feColorMatrix in="SourceAlpha" type="matrix" values="0 0 0 0 0 0 0 0 0 0 0 0 0 0 0 0 0 0 127 0" result="hardAlpha"/>
<feOffset/>
<feGaussianBlur stdDeviation="4.167"/>
<feColorMatrix type="matrix" values="0 0 0 0 0 0 0 0 0 0 0 0 0 0 0 0 0 0 0.25 0"/>
<feBlend mode="overlay" in2="BackgroundImageFix" result="effect1_dropShadow_24_98"/>
<feBlend mode="normal" in="SourceGraphic" in2="effect1_dropShadow_24_98" result="shape"/>
</filter>
<filter id="filter1_d_24_98" x="106.479" y="-7.9034" width="68.8555" height="182.807" filterUnits="userSpaceOnUse" color-interpolation-filters="sRGB">
<feFlood flood-opacity="0" result="BackgroundImageFix"/>
<feColorMatrix in="SourceAlpha" type="matrix" values="0 0 0 0 0 0 0 0 0 0 0 0 0 0 0 0 0 0 127 0" result="hardAlpha"/>
<feOffset/>
<feGaussianBlur stdDeviation="4.167"/>
<feColorMatrix type="matrix" values="0 0 0 0 0 0 0 0 0 0 0 0 0 0 0 0 0 0 0.25 0"/>
<feBlend mode="overlay" in2="BackgroundImageFix" result="effect1_dropShadow_24_98"/>
<feBlend mode="normal" in="SourceGraphic" in2="effect1_dropShadow_24_98" result="shape"/>
</filter>
<linearGradient id="paint0_linear_24_98" x1="83.3982" y1="0.430458" x2="83.3982" y2="166.569" gradientUnits="userSpaceOnUse">
<stop stop-color="white"/>
<stop offset="1" stop-color="white" stop-opacity="0"/>
</linearGradient>
<clipPath id="clip0_24_98">
<rect width="167" height="167" fill="white"/>
</clipPath>
</defs>
</svg>
