<svg width="130" height="146" viewBox="0 0 130 146" fill="none" xmlns="http://www.w3.org/2000/svg">
<rect width="130" height="146" fill="#1D1E1E"/>
<g clip-path="url(#clip0_24_8)">
<path d="M129.993 42.8824C129.992 40.4303 129.467 38.2632 128.404 36.4032C127.361 34.5741 125.797 33.0411 123.701 31.829C106.395 21.8671 89.0708 11.9355 71.7702 1.9634C67.1059 -0.724928 62.5838 -0.627087 57.9536 2.10027C51.0651 6.15583 16.577 25.881 6.29941 31.8234C2.0673 34.2694 0.00761719 38.0127 0.00660156 42.8774C0 62.9123 0.00660156 82.9462 0 102.981C0 105.379 0.504258 107.505 1.51988 109.337C2.56395 111.221 4.14883 112.796 6.29383 114.036C16.572 119.978 51.0646 139.702 57.9516 143.758C62.5833 146.487 67.1059 146.584 71.7717 143.895C89.0729 133.923 106.397 123.992 123.707 114.03C125.852 112.791 127.437 111.214 128.481 109.332C129.495 107.5 130 105.374 130 102.975C130 102.975 130 62.9174 129.993 42.8824Z" fill="#649AD2"/>
<path d="M65.1991 72.7344L1.51938 109.337C2.56395 111.221 4.14883 112.796 6.29383 114.036C16.572 119.978 51.0646 139.702 57.9516 143.758C62.5833 146.487 67.1059 146.585 71.7717 143.895C89.0729 133.923 106.397 123.992 123.707 114.03C125.852 112.791 127.437 111.215 128.481 109.332L65.1991 72.7344Z" fill="#004482"/>
<path d="M46.3379 83.5764C50.0434 90.0339 57.0091 94.3895 65 94.3895C73.0402 94.3895 80.0455 89.9791 83.7322 83.4517L65.1991 72.7344L46.3379 83.5764Z" fill="#1A4674"/>
<path d="M129.993 42.8824C129.992 40.4303 129.467 38.2631 128.404 36.4032L65.1991 72.7344L128.481 109.332C129.495 107.5 129.999 105.374 130 102.975C130 102.975 130 62.9174 129.993 42.8824Z" fill="#01589C"/>
<path d="M126.514 75.3502H121.569V80.2878H116.623V75.3502H111.678V70.4146H116.623V65.478H121.569V70.4146H126.514V75.3502ZM65 29.8322C80.8107 29.8322 94.6349 38.3184 102.157 50.9763L102.382 51.3611L83.5925 62.1625C79.8688 55.7705 72.9396 51.469 65 51.469C53.1273 51.469 43.5028 61.0772 43.5028 72.929C43.4988 76.6646 44.4764 80.3358 46.3379 83.5764C50.0434 90.0338 57.0091 94.3895 65 94.3895C72.9518 94.3895 79.8916 90.0754 83.6098 83.6661L83.7322 83.4517L102.494 94.3033C95.0549 107.28 81.0504 116.026 65 116.026C48.979 116.026 34.9964 107.315 27.5468 94.3763C23.9098 88.0603 21.8288 80.7375 21.8288 72.929C21.8288 49.128 41.1567 29.8322 65 29.8322ZM103.525 65.4774V70.4141H108.47V75.3502H103.525V80.2878H98.5801V75.3502H93.635V70.4146H98.5801V65.478H103.525V65.4774Z" fill="white"/>
</g>
<defs>
<clipPath id="clip0_24_8">
<rect width="130" height="146" fill="white"/>
</clipPath>
</defs>
</svg>
