<svg width="130" height="148" viewBox="0 0 130 148" fill="none" xmlns="http://www.w3.org/2000/svg">
<rect width="130" height="148" fill="#1D1E1E"/>
<g clip-path="url(#clip0_24_8)">
<path d="M129.774 0.38958L117.972 132.806L64.9208 147.536L12.0159 132.827L0.225983 0.38958H129.774Z" fill="#E44D26"/>
<path d="M65 136.277L107.868 124.374L117.953 11.218H65V136.277Z" fill="#F16529"/>
<path d="M42.057 43.7043H65V27.4614H24.3329L24.7208 31.819L28.7072 76.5801H65V60.3372H43.5393L42.057 43.7043ZM45.7123 84.7018H29.4318L31.7038 110.206L64.9254 119.442L65 119.421V102.522L64.9289 102.541L46.867 97.6561L45.7123 84.7018Z" fill="#EBEBEB"/>
<path d="M64.9441 76.5801H84.9149L83.0319 97.6459L64.9436 102.536V119.434L98.1916 110.206L98.4354 107.461L102.247 64.6989L102.643 60.3372H64.9441V76.5801ZM64.9441 43.6646V43.7043H104.118L104.443 40.0536L105.183 31.819L105.57 27.4614H64.9441V43.6646Z" fill="white"/>
</g>
<defs>
<clipPath id="clip0_24_8">
<rect width="130" height="148" fill="white"/>
</clipPath>
</defs>
</svg>
