<svg width="130" height="176" viewBox="0 0 130 176" fill="none" xmlns="http://www.w3.org/2000/svg">
<rect width="130" height="176" fill="#1D1E1E"/>
<g clip-path="url(#clip0_24_8)">
<path d="M41.922 136.056C41.922 136.056 35.2198 139.96 46.6918 141.281C60.5902 142.869 67.6929 142.641 83.0091 139.737C83.0091 139.737 87.036 142.267 92.659 144.457C58.3253 159.197 14.9541 143.603 41.922 136.056ZM37.7264 116.821C37.7264 116.821 30.2093 122.395 41.6899 123.584C56.5363 125.118 68.2607 125.244 88.5488 121.331C88.5488 121.331 91.355 124.18 95.7673 125.739C54.2552 137.898 8.01836 126.698 37.7264 116.821Z" fill="#5382A1"/>
<path d="M73.0955 84.1926C81.5557 93.9489 70.8728 102.729 70.8728 102.729C70.8728 102.729 92.3538 91.6207 82.4885 77.7106C73.2748 64.7395 66.2086 58.2936 104.461 36.0719C104.461 36.0719 44.4178 51.0934 73.0955 84.1926Z" fill="#E76F00"/>
<path d="M118.505 150.283C118.505 150.283 123.465 154.376 113.043 157.543C93.2247 163.557 30.5576 165.373 13.1488 157.782C6.89102 155.056 18.6266 151.271 22.3179 150.477C26.1676 149.641 28.3679 149.797 28.3679 149.797C21.4084 144.886 -16.6156 159.44 9.05379 163.607C79.0573 174.979 136.663 158.487 118.505 150.283ZM45.1445 96.8916C45.1445 96.8916 13.2686 104.476 33.8569 107.229C42.5496 108.395 59.8787 108.132 76.0205 106.777C89.2125 105.663 102.459 103.292 102.459 103.292C102.459 103.292 97.8072 105.288 94.4419 107.589C62.072 116.117 -0.461094 112.15 17.5414 103.427C32.7661 96.0553 45.1445 96.8916 45.1445 96.8916ZM102.327 128.908C135.234 111.78 120.019 95.3208 109.4 97.5386C106.797 98.0808 105.636 98.5508 105.636 98.5508C105.636 98.5508 106.603 97.035 108.448 96.3788C129.456 88.9802 145.613 118.199 101.666 129.772C101.666 129.772 102.175 129.316 102.327 128.908Z" fill="#5382A1"/>
<path d="M82.4886 0.188711C82.4886 0.188711 100.712 18.45 65.2041 46.5291C36.7306 69.054 58.7113 81.897 65.1925 96.5706C48.5718 81.5495 36.3741 68.3261 44.5575 56.0194C56.5678 37.9529 89.8412 29.1946 82.4886 0.188711Z" fill="#E76F00"/>
<path d="M48.3783 175.321C79.9637 177.346 128.466 174.197 129.615 159.227C129.615 159.227 127.407 164.902 103.511 169.409C76.5527 174.491 43.3032 173.898 23.5823 170.641C23.5828 170.641 27.6189 173.988 48.3783 175.321Z" fill="#5382A1"/>
</g>
<defs>
<clipPath id="clip0_24_8">
<rect width="130" height="176" fill="white"/>
</clipPath>
</defs>
</svg>
