<svg width="130" height="118" viewBox="0 0 130 118" fill="none" xmlns="http://www.w3.org/2000/svg">
<rect width="130" height="118" fill="#1D1E1E"/>
<g clip-path="url(#clip0_24_8)">
<path d="M0 66.1725L37.0024 51.2722C40.7585 46.324 44.9892 41.7521 49.6345 37.6212C52.6941 36.0027 58.4524 36.8796 68.9952 23.8337C79.2048 11.1082 82.456 0.230217 87.2393 0.230217C94.8071 0.230217 100.379 16.5212 108.831 41.1866C114.853 60.0256 121.921 78.5169 130 96.5749C121.176 88.382 113.659 79.5482 105.068 79.7773C97.0821 79.9635 88.2143 89.4035 78.5107 101.529C70.8036 111.244 60.5893 117.91 56.5999 117.769C56.5999 117.769 46.2893 88.7071 37.6571 83.9882C35.8652 83.2576 33.9253 82.9602 31.996 83.1204C30.0667 83.2807 28.2029 83.894 26.5571 84.9103L0 66.1263V66.1725Z" fill="#4499DD"/>
<path d="M82.6429 3.56082C79.5321 7.72784 75.7714 15.3643 68.9929 23.8337C58.4513 36.8796 52.7429 36.0039 49.6321 37.6212C44.9659 41.7304 40.7336 46.3045 37.0013 51.2722L52.3227 62.4243C65.325 44.7474 72.2893 25.5921 77.7214 13.1871C79.0826 9.84472 80.7283 6.6246 82.6405 3.56198L82.6429 3.56082Z" fill="url(#paint0_linear_24_8)"/>
<path d="M87.2857 0.231371C77.1643 0.231371 70.2464 53.3557 32.8714 83.0188C43.3643 81.3066 52.4643 107.263 56.6429 117.77C75.2143 114.62 90.0737 79.2231 105.068 79.7784C113.659 80.0989 121.176 88.382 130 96.5761C109.85 54.3726 100.425 0.229057 87.2857 0.229057V0.231371Z" fill="url(#paint1_linear_24_8)"/>
</g>
<defs>
<linearGradient id="paint0_linear_24_8" x1="68.7282" y1="56.0801" x2="60.4678" y2="29.3179" gradientUnits="userSpaceOnUse">
<stop stop-color="#551122"/>
<stop offset="0.23" stop-color="#552233"/>
<stop offset="0.36" stop-color="#553344"/>
<stop offset="0.51" stop-color="#664455"/>
<stop offset="0.66" stop-color="#556688"/>
<stop offset="0.84" stop-color="#2299DD"/>
</linearGradient>
<linearGradient id="paint1_linear_24_8" x1="128.654" y1="72.8037" x2="45.1138" y2="52.2218" gradientUnits="userSpaceOnUse">
<stop offset="0.081" stop-color="#CC3333"/>
<stop offset="0.189" stop-color="#DE5239"/>
<stop offset="0.313" stop-color="#F06E3E"/>
<stop offset="0.421" stop-color="#FA8042"/>
<stop offset="0.5" stop-color="#FE8643"/>
<stop offset="0.58" stop-color="#FA7F42"/>
<stop offset="0.696" stop-color="#EF6C3E"/>
<stop offset="0.833" stop-color="#DC4C37"/>
<stop offset="0.916" stop-color="#CF3633"/>
</linearGradient>
<clipPath id="clip0_24_8">
<rect width="130" height="118" fill="white"/>
</clipPath>
</defs>
</svg>
