<svg width="130" height="129" viewBox="0 0 130 129" fill="none" xmlns="http://www.w3.org/2000/svg">
<rect width="130" height="129" fill="#1D1E1E"/>
<g clip-path="url(#clip0_24_8)">
<path d="M64.4495 0.036438C31.527 0.036438 33.5827 14.2593 33.5827 14.2593L33.6192 28.9947H65.0366V33.4186H21.1407C21.1407 33.4186 0.0736389 31.0384 0.0736389 64.1307C0.0736389 97.224 18.4615 96.0504 18.4615 96.0504H29.4354V80.6938C29.4354 80.6938 28.8438 62.3758 47.5297 62.3758H78.6901C78.6901 62.3758 96.197 62.6576 96.197 45.5203V17.1848C96.197 17.1848 98.8559 0.036438 64.4495 0.036438ZM47.126 9.94566C47.8684 9.945 48.6037 10.0902 49.2897 10.3729C49.9757 10.6556 50.5991 11.0703 51.124 11.5933C51.649 12.1163 52.0653 12.7372 52.3491 13.4207C52.6329 14.1041 52.7786 14.8365 52.778 15.5761C52.7786 16.3157 52.6329 17.0482 52.3491 17.7316C52.0653 18.415 51.649 19.036 51.124 19.559C50.5991 20.0819 49.9757 20.4966 49.2897 20.7794C48.6037 21.0621 47.8684 21.2073 47.126 21.2066C46.3836 21.2073 45.6484 21.0621 44.9623 20.7794C44.2763 20.4966 43.653 20.0819 43.128 19.559C42.603 19.036 42.1867 18.415 41.9029 17.7316C41.6191 17.0482 41.4734 16.3157 41.4741 15.5761C41.4734 14.8365 41.6191 14.1041 41.9029 13.4207C42.1867 12.7372 42.603 12.1163 43.128 11.5933C43.653 11.0703 44.2763 10.6556 44.9623 10.3729C45.6484 10.0902 46.3836 9.945 47.126 9.94566Z" fill="url(#paint0_linear_24_8)"/>
<path d="M65.3844 128.558C98.3069 128.558 96.2513 114.335 96.2513 114.335L96.2147 99.6001H64.7969V95.1762H108.693C108.693 95.1762 129.76 97.5564 129.76 64.4631C129.76 31.3703 111.372 32.5439 111.372 32.5439H100.398V47.9C100.398 47.9 100.99 66.218 82.3037 66.218H51.1433C51.1433 66.218 33.6365 65.9362 33.6365 83.074V111.41C33.6365 111.41 30.9781 128.558 65.3839 128.558H65.3844ZM82.7079 118.65C81.9655 118.65 81.2303 118.505 80.5442 118.222C79.8582 117.94 79.2349 117.525 78.7099 117.002C78.1849 116.479 77.7686 115.858 77.4848 115.175C77.201 114.491 77.0553 113.759 77.056 113.019C77.0552 112.28 77.2009 111.547 77.4847 110.864C77.7685 110.18 78.1848 109.559 78.7097 109.036C79.2347 108.513 79.858 108.098 80.5441 107.815C81.2302 107.533 81.9655 107.388 82.7079 107.388C83.4503 107.388 84.1856 107.533 84.8716 107.815C85.5577 108.098 86.181 108.513 86.7059 109.036C87.2309 109.559 87.6472 110.18 87.931 110.863C88.2148 111.547 88.3605 112.279 88.3599 113.019C88.3605 113.758 88.2148 114.491 87.931 115.174C87.6472 115.858 87.2309 116.479 86.7059 117.001C86.181 117.524 85.5577 117.939 84.8716 118.222C84.1856 118.505 83.4503 118.65 82.7079 118.65Z" fill="url(#paint1_linear_24_8)"/>
</g>
<defs>
<linearGradient id="paint0_linear_24_8" x1="1246.35" y1="1156.01" x2="7648.98" y2="7518.94" gradientUnits="userSpaceOnUse">
<stop stop-color="#387EB8"/>
<stop offset="1" stop-color="#366994"/>
</linearGradient>
<linearGradient id="paint1_linear_24_8" x1="1873.15" y1="2008.52" x2="8750.04" y2="8534.26" gradientUnits="userSpaceOnUse">
<stop stop-color="#FFE052"/>
<stop offset="1" stop-color="#FFC331"/>
</linearGradient>
<clipPath id="clip0_24_8">
<rect width="130" height="129" fill="white"/>
</clipPath>
</defs>
</svg>
