<svg width="145" height="116" viewBox="0 0 145 116" fill="none" xmlns="http://www.w3.org/2000/svg">
<rect width="145" height="116" fill="#1D1E1E"/>
<g clip-path="url(#clip0_24_79)">
<path d="M30.117 0C21.8435 0 15.7212 7.2699 15.9953 15.1539C16.2587 22.728 15.9166 32.5386 13.4567 40.5386C10.9894 48.5619 6.81613 53.6443 0 54.2971V61.6642C6.81613 62.317 10.9894 67.3994 13.4567 75.4233C15.9166 83.4233 16.2587 93.2327 15.9953 100.807C15.7212 108.69 21.8435 115.961 30.1181 115.961H114.894C123.168 115.961 129.288 108.691 129.014 100.807C128.751 93.2333 129.093 83.4233 131.553 75.4233C134.022 67.4 138.184 62.3165 145 61.6642V54.2971C138.184 53.6443 134.022 48.5619 131.554 40.5386C129.093 32.5397 128.751 22.7286 129.014 15.1539C129.288 7.27104 123.168 0 114.894 0H30.1158H30.117ZM98.3055 71.3815C98.3055 82.2377 90.2398 88.8213 76.8545 88.8213H54.068C53.4163 88.8212 52.7913 88.5612 52.3306 88.0985C51.8698 87.6358 51.6109 87.0083 51.6109 86.354V29.6073C51.6109 29.2832 51.6744 28.9623 51.7978 28.6629C51.9213 28.3635 52.1023 28.0915 52.3306 27.8623C52.5588 27.6331 52.8297 27.4513 53.1279 27.3273C53.4262 27.2033 53.7458 27.1395 54.0686 27.1395H76.7243C87.8853 27.1395 95.2101 33.2096 95.2101 42.5282C95.2101 49.0691 90.2823 54.9249 84.0048 55.9501V56.2918C92.5513 57.2329 98.3055 63.1745 98.3055 71.3815ZM74.3691 34.9609H61.3775V53.3845H72.3204C80.7792 53.3845 85.4441 49.9647 85.4441 43.852C85.4441 38.1242 81.4322 34.9609 74.3691 34.9609ZM61.3775 60.6947V80.9976H74.8478C83.6542 80.9976 88.3203 77.4499 88.3203 70.7822C88.3203 64.1133 83.5245 60.6936 74.2814 60.6936H61.3775V60.6947Z" fill="#7E13F8"/>
</g>
<defs>
<clipPath id="clip0_24_79">
<rect width="145" height="116" fill="white"/>
</clipPath>
</defs>
</svg>
