<svg width="145" height="85" viewBox="0 0 145 85" fill="none" xmlns="http://www.w3.org/2000/svg">
<rect width="145" height="85" fill="#1D1E1E"/>
<g clip-path="url(#clip0_24_79)">
<path d="M144.62 82.0595C139.373 83.3919 136.127 82.1169 133.216 77.752C126.679 67.977 119.464 58.65 112.502 49.1507C111.604 47.9216 110.672 46.7155 109.51 45.1878C101.27 56.2838 93.0417 66.8514 85.3198 77.8439C82.5579 81.7723 79.6579 83.4838 74.5024 82.0939L105.482 40.5932L76.6429 3.11284C81.6028 2.14798 85.0321 2.6419 88.0702 7.07568C94.7794 16.8622 102.179 26.1777 109.556 36.0331C116.978 26.2122 124.286 16.8851 131.19 7.19054C133.964 3.26217 136.944 1.76892 141.927 3.21622C138.153 8.21284 134.459 13.1291 130.742 18.0108C125.724 24.5926 120.799 31.2547 115.597 37.6987C113.744 39.996 114.044 41.4892 115.701 43.6601C125.321 56.2838 134.827 69.0338 144.62 82.0595ZM0.379769 39.9041C1.20834 35.7574 1.76072 31.5304 2.91152 27.4642C9.81628 2.84865 38.1258 -7.38581 57.5742 7.86825C68.9671 16.8162 71.798 29.4284 71.2341 43.6487H7.01985C6.05318 69.1601 24.4544 84.5635 47.9075 76.7068C56.1357 73.95 60.9806 67.5176 63.4087 59.477C64.6401 55.4453 66.677 54.8135 70.4746 55.9622C68.5298 66.0243 64.1222 74.4324 54.9159 79.6932C41.1064 87.573 21.3933 85.023 11.0246 74.0764C4.90239 67.6439 2.30159 59.6378 1.1508 50.9885C0.978182 49.6101 0.621436 48.2547 0.345245 46.8878C0.368261 44.5599 0.379769 42.232 0.379769 39.9041ZM7.13493 38.1926H65.1695C64.7897 19.7453 53.2818 6.6392 37.5504 6.52433C20.2885 6.38649 7.88294 19.1824 7.13493 38.1926Z" fill="white"/>
</g>
<defs>
<clipPath id="clip0_24_79">
<rect width="145" height="85" fill="white"/>
</clipPath>
</defs>
</svg>
