<svg width="145" height="164" viewBox="0 0 145 164" fill="none" xmlns="http://www.w3.org/2000/svg">
<rect width="145" height="164" fill="#1D1E1E"/>
<g clip-path="url(#clip0_24_79)">
<path d="M72.5 163.696C70.2485 163.696 68.1472 163.094 66.1959 162.042L46.2318 150.161C43.2298 148.507 44.7308 147.905 45.6314 147.605C49.684 146.251 50.4345 145.95 54.6372 143.544C55.0881 143.243 55.6885 143.393 56.1382 143.694L71.4493 152.868C72.0497 153.169 72.8002 153.169 73.2505 152.868L133.142 118.129C133.743 117.828 134.043 117.226 134.043 116.475V47.1457C134.043 46.3938 133.743 45.7923 133.142 45.4915L73.2505 10.9023C72.6501 10.6015 71.8996 10.6015 71.4493 10.9023L11.5575 45.4921C10.9571 45.7928 10.6569 46.5447 10.6569 47.1463V116.475C10.6569 117.076 10.9571 117.828 11.5575 118.129L27.9193 127.603C36.7756 132.114 42.3287 126.851 42.3287 121.588V53.1609C42.3287 52.2586 43.0797 51.3564 44.1304 51.3564H51.786C52.6865 51.3564 53.5871 52.1083 53.5871 53.1609V121.587C53.5871 133.468 47.1324 140.385 35.8745 140.385C32.4222 140.385 29.7205 140.385 22.0655 136.626L6.3041 127.603C2.40156 125.346 0 121.136 0 116.624V47.2967C0 42.7852 2.40156 38.5746 6.3041 36.3183L66.1959 1.57924C69.9483 -0.526088 75.0517 -0.526088 78.8041 1.57924L138.696 36.3183C142.598 38.574 145 42.7847 145 47.2967V116.625C145 121.136 142.598 125.347 138.696 127.603L78.8041 162.343C76.8528 163.245 74.6014 163.696 72.5 163.696V163.696ZM90.9626 116.023C64.6944 116.023 59.2908 103.992 59.2908 93.766C59.2908 92.8637 60.0413 91.9614 61.092 91.9614H68.8971C69.7977 91.9614 70.5487 92.5629 70.5487 93.4652C71.7495 101.435 75.2018 105.346 91.1127 105.346C103.721 105.346 109.126 102.489 109.126 95.7215C109.126 91.811 107.625 88.9538 87.9606 86.9983C71.5994 85.3441 61.3922 81.7349 61.3922 68.6518C61.3922 56.4699 71.5988 49.2516 88.7111 49.2516C107.924 49.2516 117.381 55.8683 118.582 70.3055C118.582 70.7566 118.432 71.2077 118.131 71.6589C117.831 71.9596 117.381 72.2604 116.931 72.2604H109.126C108.374 72.2604 107.625 71.6589 107.474 70.907C105.673 62.636 101.02 59.9292 88.7111 59.9292C74.9021 59.9292 73.2505 64.7414 73.2505 68.3505C73.2505 72.7121 75.2018 74.065 93.8144 76.4711C112.278 78.8772 120.983 82.3365 120.983 95.2698C120.833 108.504 110.026 116.023 90.9626 116.023Z" fill="#539E43"/>
</g>
<defs>
<clipPath id="clip0_24_79">
<rect width="145" height="164" fill="white"/>
</clipPath>
</defs>
</svg>
