<svg width="145" height="129" viewBox="0 0 145 129" fill="none" xmlns="http://www.w3.org/2000/svg">
<rect width="145" height="129" fill="#1D1E1E"/>
<g clip-path="url(#clip0_24_79)">
<path d="M119.219 41.7687C117.676 41.2399 116.12 40.7499 114.552 40.2994C114.815 39.2244 115.058 38.1624 115.273 37.1191C118.806 19.9864 116.496 6.18398 108.607 1.63956C101.042 -2.71702 88.6715 1.8257 76.1777 12.6872C74.9464 13.7595 73.7424 14.8628 72.5668 15.9959C71.7799 15.2424 70.979 14.5036 70.1647 13.7797C57.0705 2.16631 43.9458 -2.72834 36.0648 1.8291C28.5072 6.19926 26.2694 19.1745 29.4503 35.4115C29.7668 37.0196 30.1241 38.6195 30.5219 40.2094C28.6641 40.7367 26.8714 41.298 25.1558 41.8955C9.80392 47.2422 0 55.621 0 64.3121C0 73.2883 10.525 82.2917 26.5146 87.751C27.8109 88.1918 29.118 88.6002 30.4347 88.976C30.0071 90.6884 29.6274 92.4125 29.2962 94.1461C26.2637 110.101 28.6318 122.77 36.169 127.112C43.9537 131.597 57.0195 126.988 69.7416 115.879C70.7732 114.976 71.7821 114.047 72.7673 113.093C74.0404 114.32 75.3474 115.512 76.6869 116.666C89.0107 127.258 101.182 131.536 108.711 127.181C116.489 122.684 119.017 109.074 115.735 92.5167C115.476 91.2195 115.186 89.9287 114.865 88.6455C115.783 88.374 116.684 88.0945 117.562 87.8036C134.184 82.3025 145 73.4083 145 64.3121C145 55.5893 134.879 47.1539 119.219 41.7687ZM115.614 81.9307C114.821 82.1927 114.007 82.4456 113.178 82.6917C111.343 76.8884 108.867 70.7179 105.836 64.342C108.728 58.1184 111.109 52.0265 112.893 46.2611C114.376 46.69 115.815 47.142 117.203 47.619C130.621 52.2336 138.806 59.0553 138.806 64.3121C138.806 69.9111 129.966 77.1798 115.614 81.9307ZM109.659 93.7184C111.11 101.04 111.316 107.659 110.355 112.835C109.492 117.485 107.755 120.585 105.608 121.827C101.038 124.469 91.2662 121.035 80.727 111.975C79.4812 110.902 78.2654 109.795 77.0811 108.654C81.1671 104.191 85.2504 99.0017 89.2356 93.2386C96.2454 92.6174 102.868 91.6012 108.873 90.2145C109.163 91.3761 109.425 92.5444 109.659 93.7184ZM49.4337 121.37C44.9693 122.945 41.4134 122.99 39.2638 121.752C34.6901 119.117 32.7887 108.945 35.3823 95.3004C35.6906 93.688 36.0436 92.0845 36.4409 90.4917C42.3802 91.8043 48.9545 92.7481 55.9808 93.3173C59.9932 98.9565 64.1942 104.14 68.4281 108.678C67.5283 109.548 66.6073 110.396 65.6657 111.22C60.0396 116.132 54.4022 119.617 49.4337 121.37ZM28.5186 81.8962C21.4481 79.482 15.609 76.3447 11.6068 72.9211C8.01012 69.8449 6.19479 66.7902 6.19479 64.3121C6.19479 59.0378 14.0661 52.3105 27.1949 47.7384C28.7882 47.1839 30.4557 46.6606 32.186 46.1695C34.0008 52.065 36.3808 58.2293 39.2531 64.4626C36.3435 70.7881 33.9294 77.0508 32.0971 83.0159C30.8953 82.672 29.702 82.2987 28.5186 81.8962ZM35.5295 34.2228C32.8046 20.3117 34.6142 9.81805 39.1687 7.1843C44.0194 4.37911 54.746 8.37868 66.052 18.4067C66.7893 19.0621 67.5146 19.7308 68.2276 20.4125C64.0147 24.9314 59.8521 30.0761 55.8754 35.682C49.0559 36.3134 42.528 37.3273 36.5264 38.6858C36.1566 37.2069 35.8242 35.7184 35.5295 34.2228ZM98.0761 49.6508C96.6585 47.2048 95.1883 44.7896 93.6666 42.407C98.293 42.9914 102.726 43.7671 106.888 44.7154C105.639 48.7166 104.081 52.8995 102.248 57.1882C100.908 54.6482 99.5167 52.1352 98.0761 49.6508ZM72.5697 24.8347C75.4266 27.9267 78.2881 31.3786 81.1026 35.1241C75.3932 34.8548 69.6743 34.8536 63.9648 35.1207C66.7821 31.4097 69.668 27.9623 72.5697 24.8347ZM46.8996 49.6932C45.477 52.1577 44.1121 54.655 42.8062 57.1831C41.0027 52.9097 39.4593 48.7076 38.199 44.6497C42.336 43.7252 46.7478 42.9693 51.3447 42.3956C49.806 44.7929 48.3239 47.2264 46.8996 49.6932ZM51.4767 86.6687C46.7274 86.1391 42.2494 85.4222 38.1135 84.5226C39.3936 80.3924 40.971 76.1008 42.8135 71.7358C44.1247 74.2658 45.4952 76.7646 46.9239 79.2302C48.3932 81.765 49.9146 84.2477 51.4767 86.6687ZM72.7407 104.225C69.8045 101.061 66.8762 97.5607 64.0164 93.7959C66.7929 93.9046 69.6232 93.96 72.5 93.96C75.4555 93.96 78.377 93.8938 81.2527 93.7659C78.4291 97.5986 75.5784 101.104 72.7407 104.225ZM102.306 71.5129C104.244 75.926 105.878 80.1949 107.175 84.2544C102.971 85.2129 98.4318 85.9846 93.649 86.5578C95.1816 84.1308 96.6657 81.6737 98.1004 79.1878C99.5591 76.661 100.961 74.102 102.306 71.5129ZM92.7349 76.0963C90.5385 79.9077 88.2185 83.6467 85.7788 87.3074C81.3595 87.6201 76.9304 87.7754 72.5 87.7731C67.9874 87.7731 63.5984 87.6328 59.3718 87.3589C56.8685 83.7067 54.5043 79.9611 52.2844 76.1303C50.075 72.3197 48.0117 68.4267 46.0981 64.4597C48.0069 60.4918 50.0644 56.597 52.2663 52.7835L52.2657 52.7841C54.4668 48.9697 56.812 45.2401 59.2965 41.6035C63.6086 41.2776 68.0305 41.1079 72.4994 41.1079C76.9888 41.1079 81.4169 41.2793 85.7279 41.6075C88.1872 45.2386 90.5175 48.9554 92.7145 52.7507C94.9237 56.5558 97.0084 60.4316 98.9653 64.372C97.0285 68.3528 94.9504 72.2634 92.7349 76.0963ZM105.513 6.99985C110.368 9.79711 112.257 21.0773 109.206 35.8698C109.011 36.8136 108.792 37.7748 108.555 38.7497C102.538 37.3624 96.0059 36.3309 89.1665 35.6899C85.1824 30.0224 81.0539 24.8697 76.9095 20.4091C77.9956 19.3632 79.1076 18.3445 80.2445 17.3538C90.9496 8.04826 100.955 4.37402 105.513 6.99985ZM72.5 51.3781C79.6509 51.3781 85.448 57.169 85.448 64.3121C85.448 71.4551 79.6509 77.246 72.5 77.246C65.3491 77.246 59.552 71.4551 59.552 64.3121C59.552 57.169 65.3491 51.3781 72.5 51.3781Z" fill="#00D8FF"/>
</g>
<defs>
<clipPath id="clip0_24_79">
<rect width="145" height="129" fill="white"/>
</clipPath>
</defs>
</svg>
