<svg width="512" height="512" viewBox="0 0 512 512" fill="none" xmlns="http://www.w3.org/2000/svg">
<g id="logo-ds 1">
<g id="edges">
<path id="edge12" d="M109.272 124.967L221.32 84.2008L226.792 99.2408L114.744 140.007L109.272 124.967Z" fill="#68607C"/>
<path id="edge24" d="M274.296 109.68L285.608 98.368L413.586 226.346L402.274 237.658L274.296 109.68Z" fill="#68607C"/>
<path id="edge34" d="M294.896 245.163L297.071 229.315L393.103 242.494L390.928 258.342L294.896 245.163Z" fill="#68607C"/>
<path id="edge13" d="M100.345 163.212L107.497 148.908L235.439 212.879L228.287 227.183L100.345 163.212Z" fill="#68607C"/>
<path id="edge56" d="M105.709 373.963L112.88 359.652L227.441 417.06L220.269 431.371L105.709 373.963Z" fill="#68607C"/>
<path id="edge35" d="M248 264H264V400H248V264Z" fill="#68607C"/>
<path id="edge26" d="M93.8646 315.589L228.663 107.691L242.087 116.395L107.289 324.293L93.8646 315.589Z" fill="#68607C"/>
<path id="edge45" d="M277.073 406.24L403.288 274.18L414.856 285.236L288.641 417.296L277.073 406.24Z" fill="#68607C"/>
<path id="edge15" d="M93.5693 182.264L107.329 174.088L239.196 396.016L225.436 404.192L93.5693 182.264Z" fill="#68607C"/>
</g>
<path id="node6" d="M136 352C136 361.04 133.92 369.52 130.08 377.04C120.96 395.44 101.92 408 80 408C49.04 408 24 382.96 24 352C24 321.04 49.04 296 80 296C91.28 296 101.68 299.28 110.4 304.96C125.84 314.96 136 332.24 136 352Z" fill="#4E9BB9"/>
<path id="node5" d="M298.48 395.6C306.96 405.36 312 418.08 312 432C312 462.96 286.96 488 256 488C225.04 488 200 462.96 200 432C200 425.52 201.12 419.36 203.12 413.6C206.96 402.32 214.32 392.8 223.92 386.08C232.96 379.68 244 376 256 376C273.04 376 288.32 383.6 298.48 395.6Z" fill="#91CBD7"/>
<path id="node4" d="M432 200C462.96 200 488 225.04 488 256C488 286.96 462.96 312 432 312C416.96 312 403.36 306.16 393.36 296.4C382.64 286.32 376 271.92 376 256C376 253.44 376.16 250.96 376.56 248.48C378.16 236 383.92 224.88 392.4 216.4C402.56 206.24 416.48 200 432 200Z" fill="#FFD086"/>
<path id="node3" d="M311.44 239.52C307.84 266.88 284.4 288 256 288C225.04 288 200 262.96 200 232C200 222.96 202.08 214.48 205.92 206.96C215.04 188.56 234.08 176 256 176C286.96 176 312 201.04 312 232C312 234.56 311.84 237.04 311.44 239.52Z" fill="#ED6571"/>
<path id="node2" d="M256 24C286.96 24 312 49.04 312 80C312 95.52 305.76 109.44 295.6 119.6C285.44 129.76 271.52 136 256 136C244.72 136 234.32 132.72 225.6 127.04C215.44 120.48 207.52 110.72 203.36 99.12C201.2 93.2 200 86.72 200 80C200 49.04 225.04 24 256 24Z" fill="#F69489"/>
<path id="node1" d="M132.64 124.88C134.8 130.8 136 137.28 136 144C136 153.04 133.92 161.52 130.08 169.04C125.28 178.64 117.84 186.64 108.64 192.08C100.32 197.12 90.48 200 80 200C49.04 200 24 174.96 24 144C24 113.04 49.04 88 80 88C104.24 88 124.8 103.36 132.64 124.88Z" fill="#91CBD7"/>
</g>
</svg>
