<svg width="194" height="197" viewBox="0 0 194 197" fill="none" xmlns="http://www.w3.org/2000/svg">
<g clip-path="url(#clip0_0_1)">
<path d="M47.8295 181.4C88.2089 181.4 128.588 181.435 168.968 181.369C176.417 181.357 182.732 178.847 187.355 172.531C190.498 168.238 190.322 163.368 190.339 158.669C190.488 118.854 190.418 79.0377 190.429 39.2217C190.432 31.8183 189.099 25.1892 182.447 20.4073C178.517 17.5826 174.284 17.1287 169.86 16.9742C165.098 16.808 160.326 16.9367 155.558 16.9367" stroke="#9DA4B5" stroke-width="6" stroke-linecap="round" stroke-linejoin="round"/>
<path d="M146.171 17.3823C104.748 17.3823 63.3247 17.5225 21.904 17.2565C14.2074 17.2071 4.14848 25.0672 3.95555 34.3176C3.08796 75.9165 3.75864 117.517 3.64095 159.116C3.60813 170.715 7.84385 177.169 16.5648 179.984C19.0797 180.796 21.8973 180.819 24.5866 180.917C28.6043 181.063 32.6313 180.955 36.6544 180.955" stroke="#9DA4B5" stroke-width="6" stroke-linecap="round" stroke-linejoin="round"/>
<path d="M129.184 2.22852C130.373 6.3394 134.124 8.32218 136.854 11.0724C141.326 15.5765 141.635 18.2817 137.228 22.7285C135.006 24.9702 132.788 27.2161 130.514 29.4045C129.348 30.5271 128.439 31.694 128.737 33.4276" stroke="#9DA4B5" stroke-width="5" stroke-linecap="round" stroke-linejoin="round"/>
<path d="M65.0392 166.692C62.1336 169.664 59.1811 172.591 56.3347 175.618C52.9186 179.25 52.9065 182.671 56.3388 186.288C59.0896 189.186 61.9846 191.949 64.8157 194.772" stroke="#9DA4B5" stroke-width="5" stroke-linecap="round" stroke-linejoin="round"/>
<path d="M133.207 155.996C128.809 156.477 125.951 153.184 122.528 151.443C117.716 148.997 113.455 145.405 108.538 143.263C105.816 142.077 105.949 140.611 105.945 138.613C105.932 131.482 106.11 124.345 105.881 117.221C105.725 112.35 107.551 108.897 111.745 106.512C118.472 102.688 125.267 98.9628 131.798 94.8263C133.591 93.6901 134.613 94.2102 135.879 94.9527C142.904 99.0745 149.874 103.291 156.908 107.398C160.22 109.331 161.382 112.257 161.374 115.882C161.356 123.608 161.361 131.333 161.375 139.059C161.377 140.679 161.486 142.093 159.609 143.122C152.535 147.004 145.571 151.086 138.575 155.11C137.172 155.917 135.669 156.083 133.654 155.938C133.654 146.64 133.712 137.278 133.614 127.917C133.59 125.561 135.366 125.194 136.787 124.357C144.378 119.887 151.982 115.437 159.581 110.98" fill="#FA4C4C"/>
<path d="M107.728 110.98C116.519 115.882 125.31 120.785 134.101 125.688Z" fill="#FA4C4C"/>
<path d="M133.207 155.996C128.809 156.477 125.951 153.184 122.528 151.443C117.716 148.997 113.455 145.405 108.538 143.263C105.816 142.077 105.949 140.611 105.945 138.613C105.932 131.482 106.11 124.345 105.881 117.221C105.725 112.35 107.551 108.897 111.745 106.512C118.472 102.688 125.267 98.9628 131.798 94.8263C133.591 93.6901 134.613 94.2102 135.879 94.9527C142.904 99.0745 149.874 103.291 156.908 107.398C160.22 109.331 161.382 112.257 161.374 115.882C161.356 123.608 161.361 131.333 161.375 139.059C161.377 140.679 161.486 142.093 159.609 143.122C152.535 147.004 145.571 151.086 138.575 155.11C137.172 155.917 135.669 156.083 133.654 155.938C133.654 146.64 133.712 137.278 133.614 127.917C133.59 125.561 135.366 125.194 136.787 124.357C144.378 119.887 151.982 115.437 159.581 110.98M107.728 110.98C116.519 115.882 125.31 120.785 134.101 125.688" stroke="#9DA4B5" stroke-width="6" stroke-linecap="round" stroke-linejoin="round"/>
<path d="M88.9539 110.98C81.3548 115.437 73.8448 120.056 66.1079 124.262C63.4356 125.714 62.9311 127.443 62.9748 130.146C63.1163 138.911 63.0277 147.681 63.0277 156.548C67.2633 156.076 70.1829 153.798 73.3062 151.98C78.3818 149.025 83.3223 145.806 88.5645 143.185C90.6997 142.117 90.7564 140.847 90.7514 139.059C90.7294 131.333 90.7296 123.608 90.7474 115.882C90.7557 112.257 89.5929 109.331 86.2815 107.398C79.247 103.291 72.2774 99.0745 65.2519 94.9526C63.9865 94.2102 62.9607 93.6707 61.1712 94.8293C54.7901 98.9608 48.2494 102.889 41.529 106.443C36.9659 108.856 35.1515 112.237 35.2702 117.22C35.4398 124.348 35.3413 131.482 35.2961 138.613C35.2828 140.709 35.6203 141.987 37.9248 143.203C44.8261 146.845 51.4088 151.087 58.1081 155.108C59.6448 156.03 61.3251 156.047 63.0277 155.995" fill="#36D033"/>
<path d="M37.1014 110.98C45.8925 115.882 54.6836 120.785 63.4747 125.688Z" fill="#36D033"/>
<path d="M88.9539 110.98C81.3548 115.437 73.8448 120.056 66.1079 124.262C63.4356 125.714 62.9311 127.443 62.9748 130.146C63.1163 138.911 63.0277 147.681 63.0277 156.548C67.2633 156.076 70.1829 153.798 73.3062 151.98C78.3818 149.025 83.3223 145.806 88.5645 143.185C90.6997 142.117 90.7564 140.847 90.7514 139.059C90.7294 131.333 90.7296 123.608 90.7474 115.882C90.7557 112.257 89.5929 109.331 86.2815 107.398C79.247 103.291 72.2774 99.0745 65.2519 94.9526C63.9865 94.2102 62.9607 93.6707 61.1712 94.8293C54.7901 98.9608 48.2494 102.889 41.529 106.443C36.9659 108.856 35.1515 112.237 35.2702 117.22C35.4398 124.348 35.3413 131.482 35.2961 138.613C35.2828 140.709 35.6203 141.987 37.9248 143.203C44.8261 146.845 51.4088 151.087 58.1081 155.108C59.6448 156.03 61.3251 156.047 63.0277 155.995M37.1014 110.98C45.8925 115.882 54.6836 120.785 63.4747 125.688" stroke="#9DA4B5" stroke-width="6" stroke-linecap="round" stroke-linejoin="round"/>
<path d="M124.307 57.2529C116.708 61.7099 109.198 66.3297 101.461 70.5348C98.7885 71.9873 98.284 73.716 98.3277 76.4189C98.4691 85.1846 98.3805 93.954 98.3805 102.821C102.616 102.349 105.536 100.071 108.659 98.2531C113.735 95.2979 118.675 92.0789 123.917 89.458C126.053 88.3905 126.109 87.1201 126.104 85.3321C126.082 77.6066 126.082 69.8811 126.1 62.1556C126.109 58.5299 124.946 55.6039 121.634 53.6709C114.6 49.5647 107.63 45.3477 100.605 41.2259C99.3394 40.4835 98.3136 39.944 96.5241 41.1026C90.143 45.234 83.6023 49.1623 76.8819 52.7162C72.3188 55.1292 70.5044 58.5102 70.623 63.4937C70.7927 70.621 70.6942 77.7553 70.6489 84.8863C70.6356 86.9827 70.9731 88.2602 73.2777 89.4763C80.1789 93.1181 86.7616 97.3607 93.461 101.381C94.9977 102.304 96.678 102.32 98.3805 102.269" fill="#36D033"/>
<path d="M72.4542 57.2529C81.2453 62.1556 90.0364 67.0583 98.8275 71.961Z" fill="#36D033"/>
<path d="M124.307 57.2529C116.708 61.7099 109.198 66.3297 101.461 70.5348C98.7885 71.9873 98.284 73.716 98.3277 76.4189C98.4691 85.1846 98.3805 93.954 98.3805 102.821C102.616 102.349 105.536 100.071 108.659 98.2531C113.735 95.2979 118.675 92.0789 123.917 89.458C126.053 88.3905 126.109 87.1201 126.104 85.3321C126.082 77.6066 126.082 69.8811 126.1 62.1556C126.109 58.5299 124.946 55.6039 121.634 53.6709C114.6 49.5647 107.63 45.3477 100.605 41.2259C99.3394 40.4835 98.3136 39.944 96.5241 41.1026C90.143 45.234 83.6023 49.1623 76.8819 52.7162C72.3188 55.1292 70.5044 58.5102 70.623 63.4937C70.7927 70.621 70.6942 77.7553 70.6489 84.8863C70.6356 86.9827 70.9731 88.2602 73.2777 89.4763C80.1789 93.1181 86.7616 97.3607 93.461 101.381C94.9977 102.304 96.678 102.32 98.3805 102.269M72.4542 57.2529C81.2453 62.1556 90.0364 67.0583 98.8275 71.961" stroke="#9DA4B5" stroke-width="6" stroke-linecap="round" stroke-linejoin="round"/>
</g>
<defs>
<clipPath id="clip0_0_1">
<rect width="194" height="197" fill="white"/>
</clipPath>
</defs>
</svg>
