<svg width="189" height="196" viewBox="0 0 189 196" fill="none" xmlns="http://www.w3.org/2000/svg">
<g clip-path="url(#clip0_0_1)">
<path d="M24.4953 1.07239L23.5175 1.79331V9.47111C23.5175 18.9512 23.2278 18.4466 28.7687 18.6268L32.5352 18.771L32.6438 36.4695C32.8249 56.2948 32.8249 56.4751 35.6497 62.5308C36.3378 64.0447 36.881 65.3784 36.8086 65.4145C36.7362 65.4866 35.3962 66.3156 33.8027 67.2528C22.6845 73.9213 13.1236 84.4467 7.40156 96.2698C-3.8977 119.736 -1.25396 146.95 14.4274 167.929C16.9263 171.282 22.5034 177.085 25.9077 179.86C36.9172 188.836 50.3894 194.171 65.093 195.36C76.7544 196.297 89.6109 193.81 100.476 188.511C130.39 173.913 145.6 140.859 137.234 108.634C135.568 102.181 132.056 94.1792 128.832 89.4571C127.927 88.1234 127.818 87.6548 127.818 85.0595V82.1398H136.329C143.391 82.1398 145.057 82.2479 145.962 82.7165C148.171 83.834 148.099 82.6084 148.099 118.546V151.348H145.455C143.137 151.348 142.703 151.456 142.015 152.177C141.254 152.97 141.218 153.331 141.218 160.468C141.218 167.461 141.254 167.965 141.942 168.65C142.667 169.371 143.137 169.371 164.903 169.371H187.176L187.9 168.434C188.624 167.533 188.66 166.992 188.66 160.287C188.66 153.15 188.66 153.114 187.755 152.249C186.958 151.42 186.596 151.348 183.771 151.348H180.693V117.537C180.693 97.2431 180.548 82.5003 180.331 80.5898C179.86 76.4445 178.23 71.5062 176.094 67.7935C172.689 61.7738 166.171 56.1146 159.616 53.4833C154.364 51.3565 152.372 51.1403 139.407 51.1403H127.818V47.031C127.818 43.5346 127.71 42.8136 127.13 42.0927L126.442 41.2276L112.499 41.1195L98.5561 41.0113L97.5059 41.9125C96.5281 42.7776 96.4918 42.8857 96.3832 46.9589L96.2383 51.1763L81.9694 51.0682L67.7005 50.96L66.5416 49.7705L65.3465 48.617L65.2378 33.658L65.1292 18.6989H68.3524C72.2636 18.6989 73.6398 18.2663 74.2193 16.9326C74.4728 16.2478 74.5814 13.6164 74.509 8.85833C74.4004 2.62238 74.3279 1.72122 73.7485 1.14448C73.1328 0.531702 71.5755 0.495652 49.2667 0.387514C25.5818 0.315422 25.4369 0.315424 24.4953 1.07239ZM69.1491 9.32692V13.292H48.8684H28.5877V9.32692V5.36186H48.8684H69.1491V9.32692ZM60.1676 34.0905C60.2763 49.1217 60.3125 49.5542 61.073 50.96C61.9784 52.6542 63.753 54.3844 65.5275 55.3216C66.6864 55.9704 67.9902 56.0065 81.571 56.1146L96.3108 56.2227V66.64V77.0934H80.1224C62.3768 77.0573 60.566 76.9131 55.7131 75.0388C47.5646 71.8667 41.0458 64.5854 38.6556 55.9344C37.8951 53.267 37.8588 52.2216 37.714 35.8928L37.6053 18.6989H48.8322H60.059L60.1676 34.0905ZM109.638 66.5319L109.711 86.8258H105.727H101.743V66.4598V46.0578L105.654 46.1659L109.529 46.274L109.638 66.5319ZM122.748 66.4598V86.8258H118.764H114.781V66.4598V46.0938H118.764H122.748V66.4598ZM155.523 57.3762C160.195 58.9262 163.491 60.9808 166.967 64.4412C171.784 69.2353 174.319 74.2818 175.224 80.8061C175.478 82.6445 175.623 95.3326 175.623 117.501V151.348H164.396H153.169V118.258C153.169 82.32 153.205 83.2212 151.177 80.5538C150.598 79.7968 149.403 78.7875 148.497 78.2468L146.831 77.2736L137.343 77.1655L127.818 77.0573V66.604V56.1146L140.24 56.2588C140.251 56.2589 140.262 56.2591 140.274 56.2592C152.554 56.403 152.629 56.4039 155.523 57.3762ZM42.4582 72.2993L44.9571 74.8585L42.2771 76.3004C27.3563 84.5188 16.9263 98.9372 13.4858 116.203C12.508 121.142 12.6166 132.208 13.6668 137.218C15.369 145.076 18.0489 151.528 22.1775 157.764C30.6519 170.561 43.3636 179.067 59.0087 182.384C62.2319 183.069 63.9341 183.213 70.0545 183.213C76.1749 183.213 77.877 183.069 81.1002 182.384C104.604 177.373 121.734 160.215 126.442 136.858C127.601 131.126 127.601 121.61 126.442 115.807C124.921 108.165 121.951 100.956 117.859 94.828L115.867 91.8362L120.285 91.9443L124.704 92.0525L126.985 96.378C132.056 106.038 134.337 115.302 134.337 126.296C134.337 137.182 132.164 146.121 127.239 155.674C120.141 169.371 108.552 179.969 94.3189 185.7C80.0138 191.503 64.5135 192.008 49.6651 187.214C44.5949 185.556 37.2432 181.879 32.9335 178.815C28.6963 175.823 22.3948 169.84 19.244 165.803C12.508 157.26 7.94479 146.698 6.27887 135.92C5.59078 131.307 5.48213 122.187 6.0978 117.825C8.85018 98.3965 20.0046 81.527 36.7724 71.3981C38.5107 70.3888 39.9593 69.5598 39.9593 69.6319C39.9956 69.6679 41.1182 70.8574 42.4582 72.2993ZM52.5624 79.2561C53.8661 79.8329 56.2201 80.6619 57.7774 81.0945C60.5298 81.8875 61.3265 81.9235 78.4203 82.0677L96.2383 82.1759L96.347 86.2851C96.5643 92.0164 96.2746 91.8362 103.699 91.9443L109.529 92.0525L111.992 95.2966C116.338 101.064 119.742 108.598 121.372 116.131C122.422 121.142 122.531 130.405 121.517 135.668C118.076 154.015 105.003 169.299 87.5828 175.427C81.3175 177.626 77.6598 178.202 70.0545 178.202C64.1876 178.202 62.6303 178.094 59.4071 177.373C38.1124 172.615 22.5397 156.719 18.5922 135.668C17.5781 130.405 17.6868 121.142 18.737 116.131C20.2943 108.922 23.4813 101.677 27.7547 95.7652C30.3984 92.0525 35.5773 86.8979 39.3799 84.1944C41.8426 82.4282 49.303 78.2108 49.9911 78.1748C50.0997 78.1748 51.2948 78.6433 52.5624 79.2561ZM183.59 160.36V164.325H164.939H146.288V160.36V156.395H164.939H183.59V160.36Z" fill="#7F868F"/>
<path d="M60.1676 34.0905C60.2763 49.1217 60.3125 49.5542 61.073 50.96C61.9784 52.6542 63.753 54.3844 65.5275 55.3216C66.6864 55.9704 67.9902 56.0065 81.571 56.1146L96.3108 56.2227V66.64V77.0934H80.1224C62.3768 77.0573 60.566 76.9131 55.7131 75.0388C47.5646 71.8667 41.0458 64.5854 38.6556 55.9344C37.8951 53.267 37.8588 52.2216 37.714 35.8928L37.6053 18.6989H48.8322H60.059L60.1676 34.0905Z" fill="#9DA4B5"/>
<path d="M109.638 66.5319L109.711 86.8258H105.727H101.743V66.4598V46.0578L105.654 46.1659L109.529 46.274L109.638 66.5319Z" fill="#9DA4B5"/>
<path d="M122.748 66.4598V86.8258H118.764H114.781V66.4598V46.0938H118.764H122.748V66.4598Z" fill="#9DA4B5"/>
<path d="M155.523 57.3762C160.195 58.9262 163.491 60.9808 166.967 64.4412C171.784 69.2353 174.319 74.2818 175.224 80.8061C175.478 82.6445 175.623 95.3326 175.623 117.501V151.348H164.396H153.169V118.258C153.169 82.32 153.205 83.2212 151.177 80.5538C150.598 79.7968 149.403 78.7875 148.497 78.2468L146.831 77.2736L137.343 77.1655L127.818 77.0573V66.604V56.1146L140.24 56.2588L140.274 56.2592C152.554 56.403 152.629 56.4039 155.523 57.3762Z" fill="#9DA4B5"/>
<path d="M69.1491 9.32692V13.292H48.8684H28.5877V9.32692V5.36186H48.8684H69.1491V9.32692Z" fill="#9DA4B5"/>
<path d="M42.4582 72.2993L44.9571 74.8585L42.2771 76.3004C27.3563 84.5188 16.9263 98.9372 13.4858 116.203C12.508 121.142 12.6166 132.208 13.6668 137.218C15.369 145.076 18.0489 151.528 22.1775 157.764C30.6519 170.561 43.3636 179.067 59.0087 182.384C62.2319 183.069 63.9341 183.213 70.0545 183.213C76.1749 183.213 77.877 183.069 81.1002 182.384C104.604 177.373 121.734 160.215 126.442 136.858C127.601 131.126 127.601 121.61 126.442 115.807C124.921 108.165 121.951 100.956 117.859 94.828L115.867 91.8362L120.285 91.9443L124.704 92.0525L126.985 96.378C132.056 106.038 134.337 115.302 134.337 126.296C134.337 137.182 132.164 146.121 127.239 155.674C120.141 169.371 108.552 179.969 94.3189 185.7C80.0138 191.503 64.5135 192.008 49.6651 187.214C44.5949 185.556 37.2432 181.879 32.9335 178.815C28.6963 175.823 22.3948 169.84 19.244 165.803C12.508 157.26 7.94479 146.698 6.27887 135.92C5.59078 131.307 5.48213 122.187 6.0978 117.825C8.85018 98.3965 20.0046 81.527 36.7724 71.3981C38.5107 70.3888 39.9593 69.5598 39.9593 69.6319C39.9956 69.6679 41.1182 70.8574 42.4582 72.2993Z" fill="#9DA4B5"/>
<path d="M183.59 160.36V164.325H164.939H146.288V160.36V156.395H164.939H183.59V160.36Z" fill="#9DA4B5"/>
<path d="M78.1306 107.805C77.2252 108.525 57.9223 142.084 57.9223 142.949C57.9223 144.175 59.1174 145.328 60.4211 145.328C61.073 145.328 61.7973 145.112 62.0871 144.824C63.1373 143.778 82.1867 110.436 82.1867 109.643C82.1867 107.841 79.5792 106.687 78.1306 107.805Z" fill="#7F868F"/>
<path d="M38.6918 115.879C26.1612 125.431 26.7769 124.854 26.7769 126.296C26.7769 127.738 26.3061 127.305 38.3659 136.569C43.0377 140.138 47.2749 143.166 47.7095 143.274C48.6873 143.562 50.4256 142.445 50.6067 141.471C50.9327 139.885 50.0997 139.092 42.0236 132.965C37.4605 129.504 33.7303 126.512 33.8027 126.332C33.8389 126.116 37.6415 123.124 42.2047 119.628C50.0273 113.608 50.4981 113.211 50.6067 111.986C50.6792 110.941 50.5343 110.544 49.7376 109.931C49.1943 109.535 48.47 109.174 48.1441 109.174C47.7819 109.174 43.5447 112.202 38.6918 115.879Z" fill="#7F868F"/>
<path d="M90.3714 109.931C89.5747 110.544 89.3936 110.941 89.5023 112.022C89.6109 113.247 90.0093 113.608 98.0491 119.736C102.685 123.268 106.379 126.332 106.27 126.476C106.161 126.657 102.612 129.432 98.3751 132.64C94.1378 135.848 90.4076 138.768 90.0817 139.165C88.7055 140.715 89.792 143.418 91.7476 143.418C92.3271 143.418 95.8038 141.039 101.997 136.353C107.139 132.46 111.775 128.855 112.354 128.351C113.586 127.197 113.658 125.683 112.535 124.566C111.449 123.521 93.8119 110.111 92.7979 109.607C91.7114 109.03 91.4941 109.066 90.3714 109.931Z" fill="#7F868F"/>
</g>
<defs>
<clipPath id="clip0_0_1">
<rect width="189" height="196" fill="white"/>
</clipPath>
</defs>
</svg>
