<svg width="158" height="158" viewBox="0 0 158 158" fill="none" xmlns="http://www.w3.org/2000/svg">
<g id="DSA" clip-path="url(#clip0_0_1)">
<g id="Group">
<path id="Vector" d="M29.0366 34.381L67.1909 20.4994L69.0542 25.6208L30.8999 39.5024L29.0366 34.381Z" fill="#E2E8F0"/>
<path id="Vector_2" d="M85.2301 29.1755L89.082 25.3236L132.661 68.9024L128.809 72.7544L85.2301 29.1755Z" fill="#E2E8F0"/>
<path id="Vector_3" d="M92.2448 75.3098L92.9854 69.9133L125.686 74.4009L124.945 79.7975L92.2448 75.3098Z" fill="#E2E8F0"/>
<path id="Vector_4" d="M25.9966 47.4042L28.432 42.5334L71.9985 64.3167L69.5631 69.1874L25.9966 47.4042Z" fill="#E2E8F0"/>
<path id="Vector_5" d="M27.8232 119.168L30.2652 114.295L69.2751 133.844L66.8331 138.717L27.8232 119.168Z" fill="#E2E8F0"/>
<path id="Vector_6" d="M76.2759 81.7241H81.7241V128.034H76.2759V81.7241Z" fill="#E2E8F0"/>
<path id="Vector_7" d="M23.7901 99.291L69.6914 28.4983L74.2625 31.4621L28.3612 102.255L23.7901 99.291Z" fill="#E2E8F0"/>
<path id="Vector_8" d="M86.1757 130.159L129.154 85.1905L133.093 88.9553L90.1148 133.924L86.1757 130.159Z" fill="#E2E8F0"/>
<path id="Vector_9" d="M23.6896 53.8917L28.3751 51.1076L73.2779 126.678L68.5924 129.462L23.6896 53.8917Z" fill="#E2E8F0"/>
</g>
<path id="Vector_10" d="M38.1379 111.69C38.1379 114.768 37.4297 117.655 36.1221 120.216C33.0166 126.482 26.5331 130.759 19.069 130.759C8.52655 130.759 0 122.232 0 111.69C0 101.147 8.52655 92.6207 19.069 92.6207C22.91 92.6207 26.4514 93.7376 29.4207 95.6717C34.6783 99.0769 38.1379 104.961 38.1379 111.69Z" fill="#4E9BB9"/>
<path id="Vector_11" d="M93.4652 126.536C96.3528 129.86 98.069 134.191 98.069 138.931C98.069 149.473 89.5424 158 79 158C68.4576 158 59.931 149.473 59.931 138.931C59.931 136.724 60.3124 134.627 60.9934 132.666C62.301 128.824 64.8072 125.583 68.0762 123.294C71.1545 121.115 74.9138 119.862 79 119.862C84.8024 119.862 90.0055 122.45 93.4652 126.536Z" fill="#91CBD7"/>
<path id="Vector_12" d="M138.931 59.931C149.473 59.931 158 68.4576 158 79C158 89.5424 149.473 98.069 138.931 98.069C133.81 98.069 129.179 96.0803 125.773 92.7569C122.123 89.3245 119.862 84.421 119.862 79C119.862 78.1283 119.917 77.2838 120.053 76.4393C120.598 72.1897 122.559 68.4031 125.447 65.5155C128.906 62.0559 133.646 59.931 138.931 59.931Z" fill="#FFD086"/>
<path id="Vector_13" d="M97.8783 73.3883C96.6524 82.7048 88.6707 89.8965 79 89.8965C68.4576 89.8965 59.931 81.37 59.931 70.8276C59.931 67.7493 60.6393 64.8617 61.9469 62.301C65.0524 56.0355 71.5359 51.7586 79 51.7586C89.5424 51.7586 98.069 60.2852 98.069 70.8276C98.069 71.6993 98.0145 72.5438 97.8783 73.3883Z" fill="#ED6571"/>
<path id="Vector_14" d="M79 0C89.5424 0 98.069 8.52655 98.069 19.069C98.069 24.3538 95.9441 29.0938 92.4845 32.5534C89.0248 36.0131 84.2848 38.1379 79 38.1379C75.159 38.1379 71.6176 37.021 68.6483 35.0869C65.1886 32.8531 62.4917 29.5297 61.0752 25.5797C60.3397 23.5638 59.931 21.3572 59.931 19.069C59.931 8.52655 68.4576 0 79 0Z" fill="#F69489"/>
<path id="Vector_15" d="M36.9938 34.3514C37.7293 36.3672 38.1379 38.5738 38.1379 40.8621C38.1379 43.9403 37.4297 46.8279 36.1221 49.3886C34.4876 52.6576 31.9541 55.3817 28.8214 57.2341C25.9883 58.9503 22.6376 59.931 19.069 59.931C8.52655 59.931 0 51.4045 0 40.8621C0 30.3196 8.52655 21.7931 19.069 21.7931C27.3231 21.7931 34.3241 27.0234 36.9938 34.3514Z" fill="#91CBD7"/>
</g>
<defs>
<clipPath id="clip0_0_1">
<rect width="158" height="158" fill="white"/>
</clipPath>
</defs>
</svg>
