<svg width="205" height="202" viewBox="0 0 205 202" fill="none" xmlns="http://www.w3.org/2000/svg">
<g clip-path="url(#clip0_0_1)">
<path d="M112.804 190.878H28.9033C12.6952 190.878 0.300751 178.49 0.300751 162.291V152.762H106.13C105.177 155.621 105.177 159.433 105.177 162.291C105.177 172.773 108.037 182.302 112.804 190.878ZM112.804 133.705H28.9033V28.8872C28.9033 12.6881 41.2977 0.300598 57.5059 0.300598H162.382C178.59 0.300598 190.984 12.6881 190.984 28.8872V38.4161H171.916V28.8872C171.916 23.1699 168.102 19.3583 162.382 19.3583C156.661 19.3583 152.848 23.1699 152.848 28.8872V106.071C135.686 108.93 121.385 119.411 112.804 133.705ZM57.5059 57.4738H124.245V38.4161H57.5059V57.4738ZM57.5059 95.5893H114.711V76.5315H57.5059V95.5893Z" fill="#7F868F"/>
<path d="M169.453 121.182C170.173 121.383 170.845 121.724 171.433 122.185C172.02 122.646 172.511 123.219 172.877 123.869C173.243 124.52 173.477 125.237 173.566 125.978C173.655 126.719 173.597 127.47 173.395 128.189L156.603 187.982C156.196 189.433 155.229 190.663 153.914 191.402C152.6 192.14 151.046 192.326 149.594 191.92C148.142 191.513 146.911 190.546 146.173 189.232C145.434 187.919 145.248 186.366 145.655 184.915L162.446 125.114C162.648 124.395 162.989 123.723 163.451 123.137C163.912 122.55 164.485 122.06 165.136 121.694C165.787 121.329 166.504 121.095 167.245 121.007C167.987 120.918 168.738 120.977 169.457 121.179L169.453 121.182ZM142.699 136.465C143.763 137.53 144.361 138.974 144.361 140.48C144.361 141.985 143.763 143.429 142.699 144.494L130.648 156.55L142.706 168.602C143.772 169.668 144.371 171.113 144.37 172.62C144.37 174.127 143.771 175.572 142.704 176.637C141.638 177.702 140.192 178.301 138.684 178.3C137.176 178.3 135.731 177.701 134.665 176.635L118.585 160.565C117.521 159.499 116.923 158.056 116.923 156.55C116.923 155.044 117.521 153.6 118.585 152.535L134.661 136.465C135.189 135.937 135.816 135.518 136.506 135.232C137.196 134.947 137.935 134.8 138.682 134.8C139.429 134.8 140.168 134.947 140.858 135.232C141.548 135.518 142.171 135.937 142.699 136.465ZM176.351 144.494C175.792 143.974 175.344 143.347 175.033 142.65C174.723 141.953 174.556 141.201 174.542 140.438C174.529 139.675 174.669 138.918 174.955 138.21C175.241 137.503 175.666 136.86 176.206 136.321C176.746 135.781 177.389 135.356 178.097 135.07C178.805 134.784 179.563 134.644 180.326 134.658C181.089 134.671 181.842 134.838 182.539 135.148C183.237 135.459 183.864 135.907 184.385 136.465L200.464 152.531C201.529 153.597 202.128 155.042 202.128 156.548C202.128 158.055 201.529 159.499 200.464 160.565L184.388 176.635C183.861 177.163 183.234 177.581 182.544 177.867C181.855 178.153 181.115 178.3 180.369 178.3C179.622 178.3 178.883 178.154 178.193 177.868C177.503 177.583 176.877 177.164 176.349 176.637C175.821 176.11 175.402 175.483 175.116 174.794C174.83 174.105 174.683 173.366 174.683 172.62C174.682 171.874 174.829 171.135 175.115 170.445C175.4 169.756 175.819 169.13 176.347 168.602L188.405 156.55L176.351 144.494Z" fill="#7F868F"/>
</g>
<defs>
<clipPath id="clip0_0_1">
<rect width="205" height="202" fill="white"/>
</clipPath>
</defs>
</svg>
