<svg width="140" height="140" viewBox="0 0 140 140" fill="none" xmlns="http://www.w3.org/2000/svg">
<g clip-path="url(#clip0_0_1)">
<path d="M63.6207 36.9034C63.8193 36.7752 63.9902 36.6091 64.1237 36.4149C64.2572 36.2207 64.3505 36.0021 64.3982 35.7719C64.446 35.5417 64.4472 35.3043 64.4019 35.0736C64.3565 34.8429 64.2655 34.6234 64.1341 34.4278C64.0026 34.2323 63.8334 34.0645 63.6361 33.9342C63.4389 33.804 63.2176 33.7138 62.985 33.669C62.7524 33.6241 62.5131 33.6255 62.281 33.673C62.049 33.7206 61.8287 33.8133 61.633 33.9458L54.6691 38.5528C53.4008 38.0505 52.0475 37.7931 50.6818 37.7945C49.2723 37.7945 47.9273 38.0623 46.6946 38.5528L39.7306 33.9458C39.3352 33.6905 38.8542 33.6002 38.3921 33.6945C37.93 33.7888 37.5241 34.0601 37.2623 34.4495C37.0006 34.8389 36.9043 35.315 36.9943 35.7744C37.0843 36.2338 37.3533 36.6395 37.743 36.9034L43.381 40.6312C41.6836 42.1864 40.5374 44.2435 40.1129 46.4966C41.1758 46.2252 42.2691 46.0882 43.3667 46.089H57.9993C59.1222 46.089 60.2116 46.2312 61.2508 46.4966C60.8262 44.2435 59.68 42.1864 57.9826 40.6312L63.6207 36.9034ZM25 63.8631C25 63.3917 25.1888 62.9396 25.5248 62.6063C25.8608 62.2729 26.3166 62.0857 26.7918 62.0857H33.9588V58.9764C33.9588 56.9952 34.5799 55.1585 35.6406 53.6489L29.7087 51.2933C29.2774 51.1113 28.935 50.7689 28.7552 50.3395C28.5753 49.9101 28.5723 49.4279 28.7467 48.9962C28.9211 48.5646 29.2591 48.218 29.6882 48.0307C30.1172 47.8434 30.6032 47.8304 31.0418 47.9944L38.5337 50.9662C39.9929 50.0983 41.6629 49.6412 43.3643 49.6438H57.9993C59.7648 49.6438 61.4156 50.1273 62.8299 50.9662L70.3218 47.9944C70.5413 47.9019 70.7771 47.8537 71.0155 47.8527C71.254 47.8517 71.4902 47.898 71.7104 47.9887C71.9305 48.0794 72.1303 48.2129 72.2978 48.3812C72.4653 48.5494 72.5973 48.7492 72.686 48.9688C72.7748 49.1883 72.8184 49.4232 72.8144 49.6597C72.8105 49.8962 72.759 50.1295 72.6629 50.346C72.5669 50.5625 72.4283 50.7578 72.2552 50.9204C72.0821 51.0831 71.878 51.2098 71.6549 51.2933L65.723 53.6489C66.821 55.2117 67.4081 57.0715 67.4049 58.9764V62.0857H74.5719C75.0471 62.0857 75.5028 62.2729 75.8388 62.6063C76.1749 62.9396 76.3636 63.3917 76.3636 63.8631C76.3636 64.3345 76.1749 64.7866 75.8388 65.1199C75.5028 65.4532 75.0471 65.6405 74.5719 65.6405H67.4049V66.2329C67.4094 68.933 66.7466 71.593 65.4745 73.9801L71.6549 76.4329C72.0962 76.6082 72.4492 76.9503 72.6363 77.3839C72.8233 77.8174 72.8291 78.3069 72.6523 78.7447C72.4755 79.1825 72.1307 79.5326 71.6936 79.7182C71.2566 79.9037 70.7631 79.9095 70.3218 79.7341L63.4128 76.9898C60.6421 80.2219 56.7263 82.2757 52.4736 82.7273V66.2329C52.4736 65.7615 52.2848 65.3095 51.9488 64.9761C51.6128 64.6428 51.157 64.4555 50.6818 64.4555C50.2066 64.4555 49.7509 64.6428 49.4149 64.9761C49.0788 65.3095 48.8901 65.7615 48.8901 66.2329V82.7273C44.6377 82.2761 40.7221 80.2232 37.9508 76.9922L31.0442 79.7317C30.8257 79.8186 30.5921 79.8619 30.3567 79.8591C30.1213 79.8564 29.8888 79.8077 29.6724 79.7158C29.456 79.6239 29.2599 79.4907 29.0954 79.3237C28.931 79.1566 28.8012 78.9591 28.7137 78.7423C28.6262 78.5256 28.5825 78.2938 28.5853 78.0603C28.5881 77.8268 28.6371 77.5962 28.7298 77.3815C28.8224 77.1668 28.9567 76.9724 29.1251 76.8092C29.2935 76.646 29.4926 76.5173 29.7111 76.4305L35.8939 73.9777C34.6205 71.5918 33.9561 68.9326 33.9588 66.2329V65.6405H26.7918C26.3166 65.6405 25.8608 65.4532 25.5248 65.1199C25.1888 64.7866 25 64.3345 25 63.8631Z" fill="#F24E1E"/>
<path d="M49.5752 26.5065C42.8086 26.767 36.6914 29.182 33.4209 32.4564C33.0596 32.8175 32.6307 33.1039 32.1587 33.2992C31.6867 33.4945 31.1809 33.5949 30.6701 33.5947C30.1593 33.5945 29.6535 33.4938 29.1817 33.2981C28.7098 33.1025 28.2811 32.8158 27.9201 32.4545C27.559 32.0932 27.2727 31.6643 27.0774 31.1923C26.882 30.7203 26.7816 30.2145 26.7818 29.7037C26.782 29.1929 26.8828 28.6871 27.0784 28.2153C27.274 27.7435 27.5607 27.3148 27.922 26.9537C32.9659 21.9099 41.1792 19.0477 49.2719 18.7327C57.419 18.4177 66.3129 20.646 72.5428 26.8759C73.272 27.6056 73.6815 28.5951 73.6811 29.6267C73.6807 30.6583 73.2706 31.6475 72.5409 32.3767C71.8112 33.1059 70.8217 33.5154 69.7901 33.515C68.7585 33.5146 67.7693 33.1045 67.0401 32.3748C62.8012 28.132 56.2913 26.242 49.5752 26.5026V26.5065Z" fill="#9DA4B5"/>
<path fill-rule="evenodd" clip-rule="evenodd" d="M89.1949 83.1594C96.9058 74.0473 101.129 62.4921 101.11 50.5552C101.11 22.6332 78.4772 0 50.5552 0C22.6332 0 0 22.6332 0 50.5552C0 78.4772 22.6332 101.11 50.5552 101.11C62.9801 101.11 74.355 96.6304 83.1594 89.1949L81.6661 97.7815L110.887 127.002L127.002 110.887L97.7815 81.6661L89.1949 83.1594ZM50.5552 89.4438C72.0334 89.4438 89.4438 72.0334 89.4438 50.5552C89.4438 29.077 72.0334 11.6666 50.5552 11.6666C29.077 11.6666 11.6666 29.077 11.6666 50.5552C11.6666 72.0334 29.077 89.4438 50.5552 89.4438Z" fill="#9DA4B5"/>
<path d="M116.386 132.501L132.501 116.386L137.775 121.659C140.742 124.626 140.742 129.437 137.775 132.4L132.4 137.775C129.433 140.742 124.622 140.742 121.659 137.775L116.386 132.501Z" fill="#9DA4B5"/>
</g>
<defs>
<clipPath id="clip0_0_1">
<rect width="140" height="140" fill="white"/>
</clipPath>
</defs>
</svg>
