<svg width="181" height="176" viewBox="0 0 181 176" fill="none" xmlns="http://www.w3.org/2000/svg">
<g clip-path="url(#clip0_0_1)">
<path d="M64.7476 51.0071C68.7725 48.9717 72.0785 46.2499 74.8431 43.1284C75.9281 43.2644 76.2678 43.9641 76.7475 44.4688C87.2844 55.5543 104.504 57.4699 117.102 48.8307C118.792 47.6718 119.587 47.8976 120.909 49.3487C124.526 53.3169 129.194 54.0264 134.148 52.649C138.885 51.3321 141.553 47.956 142.511 43.1785C142.595 42.7583 142.658 42.3296 142.793 41.9256C142.854 41.743 143.067 41.6115 143.323 41.3374C145.467 42.4775 147.367 43.995 149.28 45.4819C150.461 46.3993 149.377 47.1577 148.972 47.8784C145.889 53.3558 146.831 59.3735 151.422 63.2675C151.531 63.3605 151.656 63.4407 151.747 63.5494C152.597 64.5648 154.667 64.381 154.693 66.006C154.713 67.3093 154.046 68.6308 153.646 69.9322C145.043 97.8593 136.45 125.79 127.81 153.705C126.578 157.684 127.177 157.145 123.129 157.148C100.936 157.167 78.7416 157.131 56.548 157.201C54.471 157.208 53.5653 156.576 52.9459 154.548C45.018 128.586 36.9901 102.655 28.992 76.7154C27.9975 73.4901 27.0425 70.2525 26.0372 67.0307C25.7753 66.1913 25.7568 65.6073 26.6415 65.0419C33.4727 60.6758 34.6994 57.8459 33.2741 50.0335C33.2502 49.9024 33.3023 49.7574 33.3719 49.1784C43.5207 55.0282 53.9284 55.9593 64.7476 51.0071Z" fill="#62D6E5"/>
<path d="M11.9455 106.194C8.04378 94.293 4.20568 82.5507 0.297586 70.8317C-0.149378 69.4915 0.133349 68.7064 1.24396 67.9369C3.36869 66.4649 5.45697 64.9352 7.49671 63.3474C8.40961 62.6368 9.13858 62.4433 10.1721 63.1577C11.6565 64.1838 13.3661 64.8357 15.1116 65.2376C16.4105 65.5366 17.0201 66.1986 17.4005 67.4402C23.0796 85.9748 28.799 104.497 34.5082 123.022C38.5041 135.988 42.4909 148.957 46.5009 161.918C47.3329 164.607 48.5655 165.519 51.3844 165.52C77.3132 165.529 103.242 165.526 129.171 165.512C131.868 165.511 133.152 164.567 134.006 161.821C138.292 148.038 142.546 134.245 146.796 120.45C152.251 102.744 157.702 85.0361 163.116 67.3172C163.479 66.1302 164.068 65.5554 165.292 65.3093C167.34 64.8976 169.295 64.1394 171.027 62.9332C171.995 62.2587 172.801 62.2996 173.749 63.0312C175.737 64.567 177.756 66.0746 179.852 67.4576C181.066 68.2587 181.125 69.109 180.715 70.3744C176.24 84.1713 171.808 97.9823 167.368 111.79C160.796 132.227 154.199 152.656 147.7 173.115C147.113 174.964 146.267 175.556 144.372 175.557C108.891 175.571 73.4098 175.625 37.9292 175.759C35.5284 175.768 34.4543 175.062 33.6936 172.707C26.5397 150.565 19.2435 128.469 11.9455 106.194Z" fill="#E2E8F0"/>
<path d="M103.136 45.6132C89.5239 47.3713 78.0828 38.3464 76.6868 24.9261C76.3767 21.9458 76.9495 19.0593 77.7796 16.221C81.1391 4.73354 92.7665 -1.07183 102.56 0.439695C114.393 2.26601 122.713 11.9966 122.494 23.579C122.288 34.4916 114.387 43.5536 103.136 45.6132ZM88.6791 13.9328C87.4505 15.463 86.5778 17.1832 86.0307 19.0601C84.3142 24.9493 86.4885 31.4556 91.2556 34.7587C96.5419 38.4216 103.234 38.2584 108.285 34.3435C113.083 30.6247 114.976 24.1302 112.928 18.2897C109.466 8.41923 96.132 5.06073 88.6791 13.9328Z" fill="#E2E8F0"/>
<path d="M61.9254 43.0724C48.1708 50.0628 32.3878 43.1329 28.5999 28.5803C25.4642 16.5336 33.5612 3.25205 45.5423 0.789577C58.9601 -1.96817 71.4382 6.69633 73.492 19.7538C74.848 28.3749 70.1736 38.771 61.9254 43.0724ZM63.4326 29.5953C66.9539 22.2226 64.2322 13.8782 57.137 10.2942C50.2934 6.8373 42.0452 9.35467 38.5921 15.9542C34.7267 23.3417 37.0969 31.9474 44.0389 35.7308C50.8872 39.4631 59.2139 36.9308 63.4326 29.5953Z" fill="#E2E8F0"/>
<path d="M125.844 33.2153C125.852 24.5266 125.83 16.0534 125.885 7.58066C125.917 2.58862 127.404 1.12452 132.327 1.18764C135.837 1.23264 139.378 0.794169 142.85 1.42972C150.04 2.74565 154.993 9.03329 154.365 15.8423C153.703 23.0229 147.813 28.4065 140.451 28.5484C139.304 28.5705 138.148 28.6331 137.01 28.5303C135.174 28.3647 134.41 29.0291 134.48 30.9545C134.595 34.1096 134.598 37.2755 134.48 40.4306C134.344 44.0553 131.756 45.7542 128.459 44.6033C126.89 44.0554 126.117 42.9387 126.038 41.3907C125.904 38.7409 125.902 36.0845 125.844 33.2153ZM136.521 19.8432C137.95 19.8437 139.381 19.8979 140.806 19.8335C143.878 19.6949 145.887 17.7194 145.925 14.8799C145.961 12.1892 143.813 9.87304 140.954 9.6674C139.319 9.54984 137.67 9.6491 136.028 9.61882C134.918 9.59835 134.499 10.1701 134.506 11.2081C134.523 13.5671 134.531 15.9263 134.528 18.2853C134.527 19.371 135.095 19.8344 136.521 19.8432Z" fill="#E2E8F0"/>
<path d="M158.784 1.17859C160.192 1.22505 161.434 1.14113 162.62 1.36157C167.918 2.34689 170.582 5.45822 170.767 10.879C170.871 13.8927 170.853 16.9077 171.206 19.9116C171.534 22.7064 172.26 25.0792 175.46 25.9054C176.999 26.3027 177.643 27.6741 177.664 29.2594C177.687 30.9559 176.924 32.3575 175.341 32.767C172.104 33.6042 171.366 35.953 171.212 38.782C171.051 41.7209 170.914 44.6613 170.794 47.6022C170.457 55.9045 164.434 58.1128 158.104 57.4116C156.481 57.2319 155.616 55.9674 155.529 54.3865C155.437 52.7104 156.262 51.4927 157.892 50.9371C158.289 50.8016 158.738 50.8041 159.166 50.7736C162.782 50.5156 163.925 49.3036 164.055 45.6314C164.156 42.7663 163.904 39.8994 164.412 37.0334C164.847 34.5755 165.557 32.2885 167.161 30.3537C167.748 29.6461 167.928 29.0745 167.226 28.307C164.733 25.5836 164.329 22.1378 164.104 18.68C163.969 16.604 164.114 14.5111 164.02 12.4309C163.876 9.2515 162.717 8.0864 159.519 7.89494C157.56 7.77767 156.142 7.03184 155.914 4.94925C155.698 2.97711 156.528 1.60544 158.784 1.17859Z" fill="#E2E8F0"/>
<path d="M10.1756 16.259C10.2773 13.3394 9.92009 10.5944 10.6943 7.91949C12.1568 2.86593 18.05 -0.320147 23.0215 1.30344C24.3749 1.74543 25.101 2.7803 25.2049 4.21271C25.3077 5.63024 24.8009 6.74452 23.5047 7.41456C23.1904 7.57703 22.8367 7.68347 22.4888 7.75758C16.9328 8.94105 16.899 8.93907 16.9289 14.7758C16.9456 18.0171 16.7923 21.2252 15.9884 24.383C15.4988 26.3061 13.3333 27.7071 13.4499 29.429C13.5591 31.0419 15.4849 32.408 15.9854 34.2659C16.9501 37.8475 16.9178 41.5012 16.9385 45.1613C16.9628 49.4826 17.8487 50.4076 22.1538 50.7751C24.2515 50.9542 25.5623 52.2798 25.5419 54.2011C25.522 56.0682 24.113 57.4335 22.0366 57.5039C20.8924 57.5428 19.7285 57.5648 18.6002 57.4054C13.3773 56.6676 10.4149 53.2995 10.2383 47.8603C10.1335 44.6341 10.1927 41.4027 9.787 38.1904C9.47104 35.6888 8.64239 33.6202 5.88393 32.8723C4.22935 32.4236 3.44245 31.1134 3.38046 29.4803C3.31852 27.8487 3.98852 26.3781 5.61011 25.9087C8.83937 24.9739 9.64724 22.589 9.82188 19.668C9.88596 18.5961 10.0535 17.5304 10.1756 16.259Z" fill="#E2E8F0"/>
</g>
<defs>
<clipPath id="clip0_0_1">
<rect width="181" height="176" fill="white"/>
</clipPath>
</defs>
</svg>
