<svg width="164" height="164" viewBox="0 0 164 164" fill="none" xmlns="http://www.w3.org/2000/svg">
<g clip-path="url(#clip0_0_1)">
<path d="M24.5172 30.6203C23.5755 30.7598 22.32 32.2595 22.32 33.2011C22.32 34.91 23.6802 36.2352 25.4937 36.2701C26.1912 36.2701 26.8189 36.3747 26.9584 36.4793C27.0631 36.584 25.5286 38.2928 23.5755 40.2807C12.9735 50.8827 5.89389 65.042 4.11526 79.2013C3.73163 82.4796 3.73163 82.6888 4.42914 83.5956C4.95226 84.3279 5.47539 84.6069 6.48676 84.6767C8.64902 84.8511 9.27677 83.9094 9.90452 79.6198C10.9856 72.4007 12.8689 66.5417 16.2518 59.9851C19.2162 54.2656 22.3549 49.9062 26.9236 45.1981L30.6901 41.327L30.4808 43.3149C30.2716 45.0935 30.3413 45.3725 31.1434 46.1746C32.2943 47.3255 33.8288 47.3604 35.0146 46.2792C35.7818 45.6166 36.1306 44.6401 37.1768 39.7925C38.537 33.6545 38.4672 32.6082 36.863 31.7712C36.0608 31.3876 25.9122 30.4111 24.5172 30.6203Z" fill="#E2E8F0"/>
<path d="M123.214 30.6901C121.714 31.3178 121.191 33.8637 122.342 35.1192C122.656 35.5028 124.051 36.6886 125.411 37.8046C135.594 45.8956 143.337 57.9275 146.685 70.7615C147.138 72.575 147.452 74.1095 147.347 74.2141C147.243 74.3188 146.719 74.0049 146.196 73.5166C144.871 72.2611 143.929 72.0519 142.639 72.7145C141.418 73.3423 140.791 74.6326 141.105 75.8881C141.384 76.9344 149.614 84.6418 150.765 84.9208C152.404 85.3393 153.311 84.5372 156.694 79.6198C160.077 74.7721 160.53 73.691 159.728 72.2263C159.274 71.3544 157.496 70.6569 156.415 70.9359C155.926 71.0754 155.055 71.8078 154.497 72.575C153.834 73.4818 153.415 73.8305 153.311 73.5515C153.241 73.2725 152.753 71.3195 152.23 69.227C148.951 55.9396 140.965 43.2102 130.433 34.3868C125.759 30.4459 124.888 30.0274 123.214 30.6901Z" fill="#E2E8F0"/>
<path d="M27.8652 78.434C26.9933 79.3408 26.8538 79.7244 26.8538 81.503V83.5606L25.3891 83.9791C24.552 84.2233 23.1222 84.8161 22.1457 85.2695L20.4019 86.1065L19.0069 84.7464C18.2048 83.9791 17.0888 83.2816 16.461 83.1421C15.345 82.898 15.1358 83.0724 10.3928 87.8154C5.64976 92.5584 5.47539 92.7677 5.71951 93.8837C5.85901 94.5114 6.55651 95.6274 7.32376 96.4295L8.68389 97.8245L7.84689 99.5683C7.39351 100.545 6.80064 101.975 6.55651 102.777L6.13801 104.276H4.08038C2.30175 104.276 1.91813 104.416 1.01138 105.288L0 106.299V112.612C0 118.715 0.0348751 118.924 0.837002 119.831C1.5345 120.668 1.953 120.807 3.90601 120.947L6.17289 121.086L6.62626 122.551C6.87039 123.318 7.42839 124.748 7.91664 125.655L8.75364 127.364L7.11451 129.107C4.77788 131.618 4.91738 132.002 10.3928 137.477C14.508 141.628 14.8917 141.942 16.1472 141.942C17.1934 141.942 17.7514 141.663 18.972 140.546L20.4717 139.186L23.2268 140.372C24.7264 141.035 26.1912 141.593 26.4353 141.593C26.7143 141.593 26.8538 142.255 26.8538 143.65C26.8538 145.359 26.9933 145.917 27.6908 146.719L28.5278 147.696L34.2124 147.801C37.3512 147.87 40.4202 147.835 41.0828 147.696C42.6522 147.417 43.5938 145.813 43.5938 143.406C43.5938 142.186 43.7333 141.593 44.0472 141.593C44.2565 141.593 45.7212 141.035 47.2557 140.372L50.0108 139.151L51.4407 140.546C52.6265 141.697 53.1147 141.942 54.2307 141.942C55.5211 141.942 55.8699 141.663 60.0549 137.477C64.2399 133.292 64.5189 132.944 64.5189 131.653C64.5189 130.537 64.2748 130.049 63.1239 128.863L61.7289 127.433L62.9495 124.678C63.6121 123.144 64.1701 121.679 64.1701 121.435C64.1701 121.156 64.763 121.016 66.0185 121.016C68.39 121.016 69.9943 120.075 70.2733 118.505C70.4128 117.843 70.4476 114.774 70.3779 111.635L70.2733 105.95L69.2968 105.113C68.4946 104.416 67.9366 104.276 66.2278 104.276C64.8328 104.276 64.1701 104.137 64.1701 103.823C64.1701 103.614 63.6121 102.149 62.9495 100.649L61.7637 97.8943L63.1239 96.3947C64.2399 95.174 64.5189 94.616 64.5189 93.5698C64.5189 92.3143 64.205 91.9307 60.0897 87.8154C54.5795 82.34 54.1959 82.2005 51.6849 84.5371L49.9411 86.1763L48.2322 85.3393C47.3255 84.851 45.8956 84.293 45.1283 84.0489L43.6636 83.5955L43.5241 81.3286C43.3846 79.3756 43.2451 78.9571 42.4081 78.2596C41.5013 77.4575 41.2921 77.4226 35.1889 77.4226H28.8766L27.8652 78.434ZM37.6651 85.0951C37.6651 87.362 38.5021 88.2688 41.2223 88.8965C42.3383 89.1406 44.7447 90.0823 46.5931 91.0588C48.4763 92.0004 50.255 92.7677 50.6386 92.7677C50.9874 92.7677 51.8592 92.2097 52.6265 91.547C53.3589 90.8844 54.1261 90.3264 54.3005 90.3264C54.4749 90.3264 55.277 91.0239 56.1489 91.8958L57.6485 93.4303L56.393 94.8602C55.6257 95.6972 55.1026 96.6039 55.1026 97.127C55.1026 97.6153 55.7304 99.1498 56.4627 100.545C57.23 101.94 58.2414 104.416 58.7645 106.125C59.8107 109.543 60.5082 110.205 63.1239 110.205H64.5189V112.646V115.088H62.81C60.4385 115.088 59.8456 115.715 58.5901 119.621C57.9972 121.435 56.9859 123.841 56.3232 124.957C55.6606 126.073 55.1026 127.364 55.1026 127.852C55.1026 128.34 55.6606 129.282 56.393 130.119L57.6485 131.514L55.8699 133.292L54.0912 135.071L52.6962 133.816C50.8827 132.211 50.0108 132.176 47.4301 133.746C46.349 134.408 43.9775 135.42 42.164 136.013C38.2928 137.268 37.6651 137.861 37.6651 140.233V141.942H35.2238H32.7826V140.546C32.7826 137.931 32.1199 137.233 28.7022 136.187C26.9933 135.664 24.5172 134.653 23.157 133.885C20.0532 132.176 19.2162 132.176 17.4375 133.816L16.0077 135.071L14.4732 133.571C13.6013 132.7 12.9038 131.897 12.9038 131.723C12.9038 131.549 13.4618 130.781 14.1244 130.049C14.787 129.282 15.345 128.41 15.345 128.061C15.345 127.678 14.5778 125.899 13.6362 124.016C12.6596 122.167 11.718 119.761 11.4739 118.645C10.8461 115.925 9.93939 115.088 7.67252 115.088H5.92876V112.646V110.205H7.32376C10.0091 110.205 10.6718 109.543 11.6831 105.846C11.997 104.695 12.9387 102.428 13.8105 100.824C14.6475 99.2195 15.345 97.6153 15.345 97.2665C15.345 96.9178 14.787 96.011 14.1244 95.2438C13.4618 94.5114 12.9038 93.779 12.9038 93.6047C12.9038 93.221 15.7635 90.3264 16.1472 90.3264C16.3215 90.3264 17.0888 90.8844 17.8212 91.547C18.5884 92.2097 19.4952 92.7677 19.8439 92.7677C20.1927 92.7677 21.7969 92.0702 23.4012 91.2332C25.0054 90.3613 27.2723 89.4196 28.4232 89.1058C32.1199 88.0944 32.7826 87.4318 32.7826 84.7464V83.3514H35.2238H37.6651V85.0951Z" fill="#4F5D7C"/>
<path d="M32.9569 93.1513C25.2147 93.9185 18.4838 99.7427 16.2169 107.52C15.3799 110.38 15.4497 115.332 16.3564 118.226C20.7855 132.455 38.5021 136.919 48.9995 126.422C56.4976 118.924 56.7417 106.997 49.5575 99.2893C45.1981 94.6509 39.3391 92.4886 32.9569 93.1513ZM38.5369 99.2544C43.8728 100.615 47.5696 104.486 48.6856 109.891C50.255 117.494 45.1283 124.888 37.2814 126.248C31.5619 127.259 25.4239 124.051 22.8432 118.819C20.1927 113.344 21.204 107.101 25.4239 102.881C28.9812 99.3242 33.7591 97.9989 38.5369 99.2544Z" fill="#4F5D7C"/>
<path d="M133.014 83.8397C131.863 84.8162 131.688 86.7692 132.63 87.8154C132.944 88.1642 133.223 88.5478 133.223 88.6524C133.223 88.7571 132.072 88.9314 130.712 89.0361C121.505 89.8382 112.995 95.3136 108.113 103.544C106.474 106.299 104.765 111.321 104.416 114.286C104.207 116.378 104.207 116.483 105.288 117.564C106.229 118.471 106.578 118.61 107.485 118.436C109.019 118.122 109.822 117.32 110.031 115.82C111.007 109.682 112.995 105.602 117.006 101.626C119.238 99.394 120.493 98.4872 122.795 97.3363C125.864 95.8367 129.107 94.8602 131.026 94.8602H132.142L131.305 95.7321C129.526 97.4758 130.712 100.44 133.153 100.44C134.164 100.44 135.315 99.8473 138.733 97.5805C141.105 96.0111 143.162 94.4417 143.371 94.1278C144.139 92.6631 143.72 91.7563 140.581 88.1293C135.943 82.6888 134.967 82.1308 133.014 83.8397Z" fill="#3B6CE1"/>
<path d="M147.591 94.3719C145.569 95.7669 145.987 97.8943 148.672 100.057C155.264 105.427 158.542 114.565 156.798 122.76C156.519 124.016 155.961 125.969 155.508 127.12L154.706 129.212L154.462 128.096C154.008 125.934 152.509 124.957 150.66 125.585C148.812 126.248 148.603 127.189 148.951 132.7C149.3 138.07 149.509 138.838 150.835 139.71C151.672 140.268 151.986 140.233 156.868 139.291C161.227 138.454 162.134 138.14 162.971 137.338C164.227 136.117 164.192 134.862 162.867 133.502C161.96 132.595 161.611 132.456 160.6 132.63C159.937 132.735 159.379 132.769 159.379 132.665C159.379 132.56 159.763 131.758 160.216 130.851C165.622 120.179 163.006 105.567 154.252 97.2666C150.451 93.6744 149.3 93.1862 147.591 94.3719Z" fill="#3B6CE1"/>
<path d="M106.439 122.307C106.195 122.411 105.776 122.9 105.497 123.423C104.625 125.167 102.184 132.595 102.184 133.572C102.184 134.618 103.858 136.362 104.834 136.362C105.881 136.362 107.311 135.315 107.764 134.269L108.217 133.188L109.438 135.036C113.204 140.686 119.9 145.22 126.701 146.824C132.665 148.184 137.094 148.045 142.779 146.231C146.231 145.15 147.731 143.86 147.382 142.221C146.894 139.71 145.394 139.186 142.046 140.337C134.687 142.918 127.503 142.221 121.121 138.245C117.913 136.257 112.054 130.049 114.704 131.479C115.855 132.072 116.831 131.863 117.913 130.816C119.029 129.665 119.203 128.549 118.366 127.364C118.087 126.91 115.785 125.55 113.309 124.33C109.194 122.237 107.659 121.819 106.439 122.307Z" fill="#3B6CE1"/>
<path d="M57.7182 147.556C52.208 149.335 51.2664 149.928 51.2664 151.707C51.2664 153.067 55.9047 162.657 56.8812 163.355C58.1019 164.192 59.2179 164.052 60.3688 162.901C61.5545 161.681 61.6243 160.879 60.6826 159.03C60.299 158.263 60.0549 157.635 60.1944 157.635C60.299 157.635 61.694 158.019 63.2634 158.507C77.7714 162.901 93.7093 162.274 107.938 156.729C111.391 155.368 112.646 154.287 112.646 152.718C112.646 151.462 111.286 149.963 110.101 149.963C109.647 149.963 107.555 150.625 105.462 151.393C96.8132 154.671 90.0823 155.752 80.5614 155.438C74.3188 155.229 70.6569 154.636 65.2861 153.067L62.6705 152.265L64.1701 151.637C66.0185 150.835 66.5765 150.137 66.6114 148.638C66.6114 147.173 65.2861 145.778 63.926 145.813C63.4029 145.813 60.6129 146.615 57.7182 147.556Z" fill="#E2E8F0"/>
<path d="M62.3619 8.4078L69.3004 4.77779C75.3923 1.59375 78.4383 0 81.7133 0C84.9882 0 88.0342 1.59029 94.1262 4.77779L95.2398 5.36205L64.2839 22.9901L50.3514 16.0412C52.5926 13.5106 56.2075 11.6195 62.3619 8.40088V8.4078ZM47.8952 20.6185L61.7652 27.5328V38.0287C61.7652 38.7164 62.0393 39.3759 62.5273 39.8621C63.0152 40.3484 63.6771 40.6216 64.3671 40.6216C65.0572 40.6216 65.719 40.3484 66.207 39.8621C66.6949 39.3759 66.9691 38.7164 66.9691 38.0287V30.1222L79.1114 36.1722V68.8112C76.6205 68.1924 73.7861 66.7127 69.3004 64.3653L62.3619 60.7353C54.8996 56.8322 51.1667 54.8823 49.0921 51.3733C47.021 47.8678 47.021 43.5014 47.021 34.779V34.3745C47.021 27.8301 47.021 23.7368 47.8952 20.6185ZM84.3152 68.8112V36.1757L115.531 20.6185C116.406 23.7368 116.406 27.8301 116.406 34.3676V34.7721C116.406 43.5014 116.406 47.8678 114.334 51.3733C112.26 54.8823 108.527 56.8356 101.065 60.7387L94.1262 64.3653C89.6405 66.7127 86.8061 68.1924 84.3152 68.8112ZM113.075 16.0447L81.7133 31.671L69.8797 25.7765L100.707 8.22111L101.065 8.4078C107.216 11.623 110.834 13.514 113.075 16.0481V16.0447Z" fill="#E4A951"/>
</g>
<defs>
<clipPath id="clip0_0_1">
<rect width="164" height="164" fill="white"/>
</clipPath>
</defs>
</svg>
